####
#
# OBJ File Generated by Meshlab
#
####
# Object obj_000003_.obj
#
# Vertices: 753
# Faces: 1495
#
####
vn 0.234469 -2.388359 -2.938359
v 0.020514 -52.557602 -4.379998
vn -0.973824 2.182573 -3.764964
v -1.263075 -51.062031 -4.232350
vn -4.526147 2.381646 -1.607382
v -15.754285 -41.565434 -5.753473
vn -2.454053 -3.013345 -1.951856
v -13.206729 -45.060398 -10.294059
vn -1.024516 -2.977106 -2.959502
v -5.198089 -45.060410 -15.949735
vn -2.698189 -3.004750 -1.597052
v -14.175239 -45.060390 -8.889562
vn -2.882847 -2.946006 -1.208558
v -15.422492 -45.060394 -6.518014
vn -2.045903 5.521062 -0.293187
v -14.550627 -40.060375 -2.344990
vn -0.347107 6.235212 -0.327992
v -9.020566 -39.861694 -2.518128
vn -1.816782 -2.993100 -2.555101
v -9.557488 -45.060398 -13.783222
vn -0.301796 -3.047779 -3.150147
v -1.656614 -45.058945 -16.677776
vn 0.040885 -3.019740 -3.110617
v 0.025606 -45.060390 -16.748507
vn -1.040306 5.877778 -1.133449
v -6.681433 -40.060219 -6.995331
vn -0.163755 5.568846 -1.976739
v -1.471759 -40.060402 -14.686221
vn -0.263645 5.400864 -2.153880
v -0.619941 -39.859268 -9.323403
vn -1.970170 5.118255 -1.439781
v -6.984004 -39.860516 -6.274376
vn -1.602751 4.194577 -2.483839
v -4.768935 -39.860840 -8.171857
vn -2.855663 0.039029 -5.526005
v -1.496079 -34.780281 -2.918000
vn -4.337762 0.009762 -4.457457
v -2.188197 -34.828537 -2.420092
vn 2.576566 -3.950660 -1.046910
v -1.990492 -52.560257 0.695977
vn 0.920784 -3.820886 -2.800647
v -0.764371 -52.558544 1.717899
vn -2.241915 -2.421119 1.944947
v -3.246186 -52.560368 2.349433
vn -3.128059 -2.972311 0.146597
v -16.579510 -45.060402 0.865039
vn -4.889322 2.403178 -0.315010
v -16.570040 -41.543510 -1.500517
vn -3.041570 -2.928479 0.723402
v -16.255192 -45.060333 3.358526
vn -2.805869 -2.923014 1.373120
v -14.978839 -45.060398 6.976263
vn -2.458309 -2.988146 1.936081
v -13.130923 -45.060444 9.877750
vn -3.890138 2.391738 2.905513
v -13.376301 -41.567059 9.616525
vn -2.019101 -2.959098 2.388117
v -10.669561 -45.060467 12.444875
vn -2.357754 5.078477 0.715782
v -9.022583 -39.863213 2.171771
vn -1.738614 5.546325 1.009727
v -12.764616 -40.060539 6.923491
vn -2.316672 -2.368121 1.735177
v -3.450157 -46.059879 2.678617
vn 5.491746 0.189394 1.835756
v -2.128434 -44.990013 -0.964037
vn 4.034608 -0.008507 -4.790157
v -1.246363 -45.349693 1.409637
vn 0.081201 -4.022121 2.938135
v -0.214830 -45.060459 4.049992
vn -1.340614 1.065719 1.935771
v -5.020934 -39.860470 7.609436
vn -1.957464 2.408721 4.352499
v -6.786565 -41.508648 14.890675
vn -0.819834 -2.917142 3.013387
v -4.564604 -45.060455 15.653079
vn 0.025057 -2.931862 3.117928
v -0.125762 -45.060425 16.268423
vn -4.312607 2.545827 0.608422
v -3.094061 -9.871046 0.230344
vn -0.464515 -0.000116 6.243556
v -0.283797 -28.017422 2.740215
vn -1.961684 1.786321 5.021619
v -1.240949 -9.837339 2.539593
vn 0.920613 0.008795 6.143467
v 0.289218 -16.400063 2.741450
vn -4.815479 0.047619 3.750810
v -2.502951 -35.297470 1.623413
vn -1.190620 2.738846 -3.361812
v -1.083195 -9.850090 -3.106561
vn -2.498989 -1.813752 -2.790008
v -2.758755 -2.785845 -8.250058
vn -1.652275 -2.711140 -2.720523
v -1.792204 -3.687113 -8.249685
vn -3.017638 -0.773797 -2.780656
v -3.262930 -1.716291 -8.247997
vn -3.062201 0.415488 -2.771001
v -3.340878 -0.445589 -8.250019
vn -1.352859 2.767614 -2.649853
v -1.536665 2.084415 -8.250433
vn -0.873232 -2.878413 -2.558529
v -11.247944 -7.320550 -0.250010
vn -2.679676 -1.207446 -2.481443
v -14.825444 -4.327822 -0.250001
vn -2.808055 -0.932990 2.420802
v -14.965424 -4.029392 1.749964
vn -0.330092 -3.108086 2.965079
v -10.286764 -7.359951 1.749997
vn -3.097492 -0.496842 3.035568
v -6.755998 -4.394317 42.749977
vn -3.493750 -2.804960 3.002167
v -1.433840 -2.306080 2.193341
vn 0.478214 -3.533197 3.459392
v -0.026131 -2.647000 2.580035
vn 0.467009 -3.422217 -0.304083
v 0.379791 -16.010717 26.883059
vn 1.568324 -1.570964 -1.570455
v -5.117360 -7.360360 -0.249997
vn -5.284742 1.482199 1.515373
v -2.658246 -3.511035 20.265766
vn -1.535595 -1.901424 1.782875
v -6.117356 -7.360360 42.750000
vn 0.543591 -4.295309 -4.309363
v -0.322035 -8.042670 25.488865
vn 0.116568 4.446190 4.433985
v -0.143490 -3.019731 21.795622
vn -3.122116 0.131533 2.926763
v -15.117152 2.679351 1.750000
vn -1.542808 5.043344 1.350697
v -6.117364 7.639598 1.750072
vn -2.228506 2.120189 -2.742301
v -13.875761 5.968342 -0.249997
vn -1.749324 2.521170 2.627639
v -12.968057 6.795353 1.748833
vn -0.525311 3.047883 2.823261
v -10.860776 7.632868 1.749984
vn -0.761436 2.949659 -2.649669
v -11.187656 7.614975 -0.249660
vn -3.132979 -0.161885 3.244761
v -7.076566 -1.382677 1.750747
vn -3.132586 -0.166084 3.035391
v -7.077127 -1.377195 42.749992
vn 3.169190 -3.119303 -0.038055
v -5.117360 -0.860356 0.327704
vn -2.507956 2.931987 -2.466923
v -2.110230 2.076027 -0.224682
vn 1.566191 1.570734 -1.568960
v -5.117362 7.639640 -0.249997
vn 3.122467 0.065390 -3.248510
v -5.117360 2.131683 -0.249997
vn 1.570331 1.570613 1.570790
v -5.117360 7.639640 42.750000
vn 2.253031 4.322037 -0.841088
v -4.999570 1.139889 -0.037193
vn 0.488032 -4.095428 -0.315407
v -0.437601 -0.610087 17.947666
vn -2.562428 -2.171391 1.481300
v -2.042256 -0.860751 18.789474
vn 6.079760 -0.898971 1.112645
v -1.832729 3.220252 17.349598
vn 0.102502 4.024172 -0.258799
v -0.106105 0.795275 17.960863
vn -0.585386 -0.172285 0.675148
v -3.082030 1.139650 21.567499
vn -5.106742 -2.298081 2.605324
v -2.187829 3.616171 20.812750
vn 0.685684 -0.833045 1.740000
v -2.329132 1.147562 21.587488
vn 0.435557 -4.507706 2.206275
v -1.030450 -0.860410 19.937815
vn -0.321714 1.646562 2.621565
v -0.588246 1.139740 19.798779
vn -0.429481 -0.280592 0.815297
v -1.096320 1.139650 22.339701
vn 4.582134 2.857098 -2.692055
v -1.497133 4.335966 20.574717
vn -1.475586 5.371531 -2.254896
v -0.616104 2.882116 13.634192
vn 1.890389 4.067831 -4.050953
v 0.803908 9.174711 20.055477
vn 6.031953 -1.146782 1.169858
v -1.750075 10.316622 23.937267
vn -2.442300 0.597988 3.082641
v -2.413077 13.185353 29.988581
vn -2.207504 -0.358525 2.991771
v -2.182076 -12.602140 30.290987
vn -1.582380 -5.003266 1.357751
v -6.117342 -7.360339 1.823320
vn 1.570785 -1.570785 1.570796
v -5.117360 -7.360360 42.750000
vn 6.283142 -0.007757 -0.016630
v -5.117360 -1.030629 42.510201
vn 2.964502 0.724515 3.620820
v -5.117360 1.387639 42.750000
vn 1.393558 2.295537 4.232507
v -4.988400 1.139650 42.750000
vn 3.141718 -3.141237 -0.001472
v -5.117360 -0.860356 42.270302
vn 1.570904 -1.576341 4.705665
v -5.116052 -0.860289 42.749851
vn -0.864881 -0.236145 3.722996
v -0.941034 12.377966 30.795263
vn -1.536503 1.902204 1.782828
v -6.117356 7.639634 42.749580
vn -2.900836 2.570683 1.226895
v -2.771529 14.841428 28.332424
vn 1.102467 0.678230 4.797853
v -0.936350 15.405763 27.686003
vn -1.768567 3.377481 0.174350
v -2.023230 15.706111 27.466715
vn 2.553003 3.651898 2.295265
v -1.970667 13.828811 29.341358
vn 1.214981 2.384496 -2.831630
v 1.326424 -51.060440 -4.005616
vn 0.935366 3.673299 -2.870435
v 1.172210 -51.053371 -3.537119
vn 2.412460 -2.294959 -1.587298
v 3.328975 -52.560459 -2.528855
vn 2.902065 2.576454 -1.961599
v 3.189035 -51.068336 -2.598925
vn 0.408351 -2.996206 -3.105999
v 1.736385 -45.060398 -16.645554
vn 1.497606 -2.982603 -2.750475
v 7.697320 -45.060299 -14.788033
vn 2.201744 -2.325697 -2.085823
v 2.765781 -46.050026 -3.375625
vn 0.481056 5.515413 -1.980279
v 3.185392 -40.060238 -14.451540
vn 1.917061 2.489436 -4.300821
v 6.527196 -41.521091 -15.387611
vn 1.594276 3.411768 -2.667555
v 3.092238 -39.860508 -8.885967
vn 3.726014 0.006882 -5.024387
v 1.644442 -34.881039 -2.678178
vn 1.092548 5.816370 -1.203847
v 6.488877 -40.058445 -6.897670
vn 1.466833 5.489972 -1.443886
v 6.350481 -39.860428 -6.655531
vn 2.657543 -2.815137 -1.603276
v 14.226577 -45.059856 -8.658466
vn 4.557664 2.431454 -1.791757
v 15.237216 -41.555847 -6.359468
vn 3.830760 2.369449 -2.889752
v 13.240602 -41.524788 -10.043786
vn 2.504537 4.247786 -1.447199
v 8.487201 -39.860115 -3.748539
vn 4.752125 2.458169 -0.869684
v 16.153042 -41.562386 -3.165966
vn 1.470390 0.026487 -6.064043
v 0.646646 -38.097626 -3.151928
vn 3.003280 -2.984181 -0.879813
v 15.755360 -45.060421 -4.834351
vn -2.881802 -3.499912 -0.878738
v 1.833943 -52.560394 0.152790
vn 0.111263 -2.104378 2.811091
v 0.050721 -52.560253 3.955312
vn 3.591145 2.406657 0.250389
v 3.912638 -51.061478 0.186416
vn 2.088613 -3.863199 2.102023
v 2.543083 -46.065742 2.223915
vn 1.851470 -2.194782 2.233596
v 2.723516 -46.061691 3.121631
vn 3.446484 -2.437649 0.527242
v 4.038962 -46.053371 0.622849
vn 2.675963 3.688933 -1.350015
v 2.555369 -39.853851 -1.718815
vn 2.469521 0.017986 5.659599
v 1.068082 -34.839878 2.507308
vn 1.333024 4.263252 2.601460
v 3.579728 -39.860363 8.351780
vn 0.810575 5.602010 1.775582
v 6.187090 -40.060398 12.805355
vn 3.068673 -3.016312 0.635053
v 16.071287 -45.060371 2.950729
vn 3.048441 2.446209 3.927751
v 9.999347 -41.560322 12.784655
vn 1.936891 -3.031327 2.466856
v 10.000724 -45.060406 12.783616
vn 2.257728 -3.015975 2.172256
v 11.509812 -45.060410 11.440586
vn 2.642728 -2.956207 1.673221
v 13.966716 -45.060398 8.369351
vn 1.358675 5.956375 0.254678
v 8.684595 -39.861343 1.959104
vn 1.902758 5.410394 1.023329
v 8.117671 -40.060310 4.251230
vn 1.016136 5.615246 1.637176
v 7.548625 -40.060345 12.057705
vn 4.513520 2.352432 2.150048
v 14.859793 -41.557903 6.710007
vn 3.916314 2.400065 2.972989
v 12.951366 -41.541748 9.825064
vn 0.295711 5.548313 1.983995
v 2.186369 -40.059841 14.102226
vn 1.609232 -3.007323 2.689450
v 8.605935 -45.060398 13.755340
vn 4.560833 0.046829 4.080539
v 2.103798 -36.781948 1.799058
vn 5.738244 0.021084 -2.405431
v 2.628452 -34.881569 -1.457631
vn 3.115236 -3.007674 -0.328193
v 16.266684 -45.060440 -2.201500
vn 3.124049 -2.976080 0.209024
v 16.333157 -45.060467 1.058670
vn 2.908649 -3.007720 1.163888
v 15.159010 -45.060398 5.991140
vn 4.450682 1.563076 -3.336813
v 2.216202 -9.936139 -2.166282
vn 1.115843 -2.902247 -2.620276
v 0.985809 -3.964221 -8.249557
vn 2.992369 -0.066222 -2.544048
v 3.160976 -0.974550 -8.250012
vn 1.976031 2.106962 4.516406
v 1.264993 -9.795804 2.418013
vn 5.493911 1.111099 -2.166271
v 2.623721 -10.180696 -1.469145
vn 4.740882 2.103145 1.679006
v 2.714370 -9.859117 0.748498
vn 5.746454 1.753121 -1.288689
v 2.657897 -9.674541 -0.697222
vn 4.616342 -2.721223 2.048440
v 1.695671 -1.961007 1.932316
vn -1.568920 -1.570796 -1.570022
v 4.882640 -7.360360 -0.249997
vn 1.541125 -5.042532 1.355385
v 5.882649 -7.360307 1.750599
vn 0.827688 -2.897527 -2.665451
v 10.939837 -7.350231 -0.250000
vn 1.096757 -2.704133 2.285490
v 11.405704 -7.326204 1.749983
vn 2.700570 -1.079866 2.297874
v 14.845565 -4.052323 1.749997
vn 2.415529 -1.815867 -2.597264
v 14.261229 -4.874664 -0.250676
vn 2.548418 -2.721776 0.743146
v 2.449753 -14.813259 28.068245
vn -6.244661 0.224507 0.252238
v 1.636273 -9.540649 24.419380
vn -2.086948 -4.040786 0.906803
v 1.090094 -13.095692 29.798622
vn -4.810295 2.841490 2.834146
v 1.151929 -6.911624 20.071531
vn -4.224661 -3.159055 -3.110834
v 1.123693 -5.456760 22.120588
vn 6.073947 -0.157682 -0.060873
v 2.703299 -7.174287 22.223406
vn 3.655620 3.427891 3.452830
v 1.505917 -7.865389 25.956724
vn 1.536602 -1.902401 1.782876
v 5.882641 -7.360356 42.749523
vn 2.566794 4.955105 0.002983
v 2.513273 1.140152 2.710916
vn 2.387759 3.119665 -2.493481
v 1.771359 2.180835 -0.211883
vn -3.095136 -0.333527 -3.255503
v 4.882632 -1.758613 -0.249992
vn -1.369246 2.334478 -4.194546
v 4.741798 1.139649 -0.250194
vn -2.936528 0.776102 -3.658057
v 4.882640 1.387664 -0.249997
vn 3.098808 0.495077 3.247452
v 6.524712 4.652712 1.750394
vn 2.590288 4.916937 -0.000031
v 2.515823 1.139537 10.594316
vn -1.570773 1.570784 1.570778
v 4.882640 7.639640 42.750000
vn 2.975258 0.082832 3.027353
v 6.050251 6.861205 1.750369
vn 2.321876 2.021160 2.782313
v 13.562054 6.075591 1.750013
vn 2.888905 0.898495 -2.579720
v 14.793569 4.059750 -0.249993
vn 1.940147 2.319603 -2.562815
v 13.119603 6.606908 -0.249978
vn 2.100914 -3.970847 1.951429
v 1.708879 -0.860356 19.378702
vn -6.081184 -1.122566 1.073769
v 1.597412 3.222092 17.347683
vn 2.581784 0.801768 3.064317
v 2.229993 13.258373 29.915581
vn -1.365465 2.345667 4.195915
v 4.741800 1.139650 42.750000
vn 0.930386 -2.648451 2.356311
v -0.143419 -0.860356 19.940207
vn 2.151144 3.432691 0.399592
v 1.904687 15.606713 27.565104
vn 0.852653 -0.134687 3.971317
v 0.779354 12.437459 30.735743
vn -2.258493 4.011122 1.506345
v 1.226963 13.437140 29.721607
vn 1.535581 1.901401 1.782857
v 5.882637 7.639640 42.750000
vn 1.147837 0.176583 3.554300
v 0.777556 -12.120279 30.773916
vn -2.687391 -3.098845 2.517186
v 1.636529 -13.624002 29.264400
vn 2.808670 -1.054764 2.314829
v 2.651926 -13.561451 29.299791
vn -1.570278 -1.570567 1.570792
v 4.882640 -7.360360 42.749996
vn -1.570913 -1.571801 4.712406
v 4.882619 -0.860325 42.749329
vn -0.633043 6.494781 0.413560
v 1.850909 1.139762 20.081717
vn 3.132664 0.165756 3.035379
v 6.842389 1.656491 42.749958
vn 3.097654 0.496898 3.035605
v 6.521194 4.673802 42.749962
vn 3.603159 -2.560051 4.052687
v 1.501203 12.467132 30.240541
vn -2.936615 0.775672 3.658077
v 4.882640 1.387650 42.750000
vn 0.472308 3.690711 -0.264420
v 0.553893 16.212444 26.961744
vn 0.056320 0.003588 -3.794751
v 0.820550 -3.031993 -8.252118
vn 1.439638 -3.653326 2.656738
v 2.278313 -45.060596 3.328580
vn 3.044803 3.434282 -0.680408
v 3.363607 -51.061871 -0.654694
vn -0.707514 0.198648 3.996443
v -0.817927 -12.113126 30.780544
vn -0.427042 -4.361621 4.263876
v -0.302389 6.240134 24.788519
vn -2.980218 -3.797007 3.774223
v -1.423116 7.784434 25.897516
vn -2.831594 3.512245 1.218534
v -2.896052 -39.860310 0.919831
vn -4.106524 -1.255893 1.938157
v -0.495955 2.650156 21.135380
vn 1.018917 -1.714159 4.209016
v -1.815669 2.899282 20.634033
vn 0.421104 0.164682 -6.221172
v -5.563635 1.178334 -0.249996
vn 0.284211 3.039564 -2.566411
v 0.158920 2.430121 -8.249578
vn 1.774067 -2.324407 -0.408998
v -0.152580 2.446599 21.010460
vn -0.821234 6.073475 -0.700828
v -9.105277 -40.060501 -3.502807
vn -3.753152 4.433009 -1.848318
v -1.690162 2.404969 13.817266
vn -0.128522 -2.431941 -2.844183
v -0.097702 -42.609409 1.849788
vn -2.400724 0.046482 5.183729
v 0.857452 -44.958435 -2.219235
vn 0.597092 2.353252 -4.441889
v 0.104930 -9.865970 -3.253483
vn 0.074588 -3.854798 -2.972147
v 0.051136 -46.066578 -3.862515
vn 2.743860 1.603742 3.621226
v -1.658302 14.934250 28.223639
vn -1.954952 -4.179685 2.003232
v -3.290391 -45.060844 2.931761
vn -2.555531 -3.569279 1.553152
v 1.688466 -52.560482 -1.243256
vn 2.840074 2.686822 1.177390
v 2.431937 15.020524 28.153503
vn 4.045206 3.191887 -2.930062
v -1.439130 8.665011 24.968958
vn -5.094911 1.447624 -2.855879
v -2.636428 -9.557956 -1.577276
vn 5.706625 0.240668 -0.373659
v -1.945197 6.260879 21.208227
vn -5.201835 3.160414 -1.143595
v -2.412570 1.676787 14.117723
vn 0.039425 -0.239069 -0.599618
v -0.341716 1.139650 19.886900
vn -0.519579 6.215181 0.026382
v -3.453915 1.140706 21.055597
vn -2.551832 1.636843 0.039162
v -1.665257 1.146668 19.441723
vn -4.896595 -2.600670 -1.748940
v -2.181848 -3.442528 -2.124808
vn -0.973465 4.918347 2.394900
v -3.797004 -40.060413 8.255920
vn -0.959280 5.998189 0.885500
v -7.329071 -40.060013 5.770546
vn 0.340905 3.218098 3.053750
v 6.934188 7.648560 1.750203
vn -1.174655 -3.794322 -2.679265
v 0.607871 -52.557671 1.665366
vn -5.830825 0.355309 0.141206
v -2.925525 -9.077327 24.180855
vn 3.054559 1.178591 3.064900
v -1.748878 2.429376 16.427324
vn 0.920613 -0.002220 6.153627
v 0.333223 -26.606249 2.735481
vn -5.754149 -1.424382 -0.887197
v -2.714782 -4.053904 17.419428
vn -1.943008 5.565902 0.412687
v -14.311981 -40.060394 2.857800
vn 0.935103 -2.957674 -2.984996
v 5.016478 -45.060501 -15.931547
vn 5.178603 -0.020821 -2.660161
v -1.997681 -44.651871 0.729625
vn 3.968785 -0.056358 -4.863268
v -0.933896 -47.886185 1.654226
vn -3.281865 3.389041 3.493001
v 0.845910 -13.376734 25.923872
vn -4.715796 2.318943 2.918487
v -2.513736 -9.631898 1.162815
vn 5.473917 0.121066 -1.913525
v -2.070262 -46.170185 0.537978
vn 3.097596 -0.496982 3.035584
v 6.521082 -4.395208 42.749985
vn 6.100133 -0.405420 -0.410138
v 2.876497 -38.697876 -0.516514
vn -0.955298 5.506583 -1.811189
v -6.740749 -40.059917 -13.271194
vn 2.492529 -0.087660 -5.535874
v -0.810778 -44.524376 1.728522
vn -0.805436 1.064005 1.971949
v -0.765363 2.065040 21.685600
vn -0.219874 -3.012417 -1.327716
v -0.328599 -4.097648 -8.319607
vn -0.488105 3.612986 3.006787
v -0.538318 -39.859814 2.739522
vn 4.644804 3.748426 -1.407896
v 1.966735 1.942565 13.912456
vn 1.504102 0.771572 3.503258
v -0.279819 1.990857 21.029970
vn -1.996934 -2.417217 -2.179115
v -2.775130 -52.560368 -3.354614
vn -3.188942 2.507751 -3.526349
v -11.194135 -41.539875 -12.485495
vn -0.324484 6.085691 -1.043001
v -3.543323 -40.060005 -9.065483
vn -5.396094 -1.929329 1.961121
v 1.485673 7.626784 21.047146
vn -2.184237 -2.961977 -2.242323
v -11.576999 -45.060394 -12.139575
vn -1.976217 -3.562201 -2.516746
v -2.844431 -46.082165 -2.629250
vn -0.663823 -4.002632 -2.895219
v -1.039340 -45.060558 -4.482629
vn -2.571028 -2.475177 -1.247020
v 1.790762 -42.610394 0.570966
vn -5.535347 -0.008491 -2.661246
v -2.840235 -34.711411 -1.578557
vn 1.087809 6.081876 0.142803
v 9.153309 -40.056679 1.903590
vn 4.999693 -2.181823 2.712444
v 2.170960 3.466052 20.436523
vn -5.873623 -1.215252 -1.225851
v -2.826167 -11.396593 25.316624
vn 2.707670 2.517703 4.701495
v 1.327067 -9.602549 2.176478
vn 1.416669 5.492331 -1.501747
v 10.163357 -40.058628 -10.636877
vn 4.779959 0.010417 -3.972003
v 2.188038 -34.889648 -2.190466
vn -2.187602 3.606152 3.455230
v 0.686169 -11.466858 23.799238
vn 2.270228 2.357528 5.024106
v 1.409462 -50.708729 2.901316
vn -4.869957 2.596565 -2.046798
v -2.054140 1.639820 20.313101
vn 5.190530 1.610767 2.741287
v 2.856557 -50.614361 1.676041
vn -2.237776 -2.388281 1.712893
v 1.593141 -42.608791 -1.556478
vn -1.654970 -0.021182 6.027623
v -0.908536 -34.735344 2.643880
vn -3.097732 0.496307 3.035287
v -6.755702 4.674206 42.749973
vn -1.784932 -1.367855 1.295687
v -2.879882 -13.915658 28.968149
vn -1.115901 -4.197052 -4.192367
v -0.560644 -10.487451 21.492100
vn -5.637075 -1.238372 -0.959133
v -2.825830 -13.345533 27.053133
vn 3.452620 2.435310 3.550667
v 11.286052 -41.560375 11.675162
vn 1.481902 5.603726 1.264792
v 10.920428 -40.060402 9.154027
vn -4.297966 2.204822 0.738106
v -4.078704 -51.083336 0.616466
vn -1.390033 -4.089660 -4.073162
v 0.134022 -4.022501 21.490345
vn -1.275846 -0.037429 5.112000
v 0.338031 -23.293503 2.734174
vn 2.937082 3.658598 0.979386
v 2.162383 -0.860171 18.095217
vn 0.537974 -1.459146 4.774667
v 1.627262 2.789529 20.462721
vn -3.236834 -3.112063 0.526480
v -3.546922 -46.082569 -1.093644
vn -0.545207 0.357293 0.873280
v 1.727610 1.149670 19.112900
vn 3.041686 -2.802303 -0.373975
v -2.092498 -42.618694 0.016238
vn 0.305951 -2.267228 -2.979832
v 0.206937 -46.057106 -4.561454
vn -3.138035 0.167008 3.247368
v -7.075187 1.681116 1.755624
vn -0.086757 -0.078443 0.123699
v -4.736112 -2.982975 0.503537
vn -2.992854 0.899202 -3.474288
v -3.238292 0.150906 -0.253420
vn -0.017735 0.089341 -4.336441
v -0.610230 1.907799 -8.261018
vn 0.996990 0.719777 1.952037
v -1.840350 1.965760 20.917801
vn -3.198318 2.099334 -1.662167
v -3.607246 -51.066170 -2.357513
vn 3.141539 -3.141592 -0.000169
v -5.117360 -0.860356 16.541536
vn 5.689919 1.319280 2.223704
v 2.084705 -1.369457 18.599148
vn 5.500638 1.777939 1.871785
v 2.465302 -9.507665 25.895966
vn -2.598036 -1.683721 -0.206514
v -1.141130 1.139650 21.896400
vn -1.590803 -2.466002 -3.913128
v 4.536994 -0.862125 -0.217588
vn -1.759681 -0.499996 -5.866673
v -1.108502 -39.206036 -3.116810
vn 0.560702 3.011670 -2.571630
v 10.839963 7.601076 -0.249080
vn 3.094069 3.324586 0.473522
v 2.607650 -0.860921 16.687597
vn 3.041618 3.244185 4.228413
v 1.253062 -1.538227 19.847231
vn 3.049463 3.760771 -0.324621
v 2.630305 1.140035 15.386454
vn 5.252206 -0.133720 -2.386294
v -2.013808 -48.074131 0.681274
vn 0.318784 -4.049517 4.647585
v -0.121051 3.456949 21.963009
vn 2.595113 -4.106667 -1.244900
v 3.878458 -45.061203 -2.038004
vn 0.093420 5.902736 -1.491407
v -0.069828 -40.059044 -9.623232
vn 0.153830 3.517075 -3.049043
v 0.045989 -39.860607 -3.262475
vn -4.971203 2.751680 1.534253
v -3.555384 -50.736420 0.821413
vn -0.500250 3.155729 4.720088
v -0.183302 -50.879765 3.327302
vn 1.935456 -3.941799 -4.060075
v -0.689702 -10.315533 27.653996
vn -0.051666 -1.052550 1.421984
v 1.996932 1.226596 21.083595
vn -5.622646 -2.257333 1.301033
v 1.392476 3.948898 17.227190
vn 1.620095 -1.428415 -0.158158
v 2.228945 1.235120 20.825630
vn 2.024361 -2.463622 2.034533
v -1.647969 -42.607769 -1.745913
vn -0.682660 -1.203576 4.844713
v 0.335768 -15.297474 27.535412
vn -4.306390 -2.772174 -2.249866
v -3.089818 -2.189554 -0.654908
vn -3.121574 -3.097959 0.192966
v 4.882640 -0.860356 0.923808
vn 2.882324 3.555094 3.021394
v -1.096256 -13.745925 26.305141
vn 4.846503 2.184433 -0.080014
v 2.894254 -9.872508 -0.277928
vn 3.131851 -0.166430 3.035755
v 6.841797 -1.382652 42.749989
vn 2.107077 -4.010481 3.662948
v -0.884636 5.829970 18.023788
vn -0.421860 -2.631890 2.993931
v -0.656324 -46.060284 3.963036
vn -0.895572 -4.116197 -3.929974
v 0.271105 -11.800858 29.249805
vn 5.505328 -0.194896 1.644905
v -2.161249 -48.706600 -0.895628
vn 1.416344 -4.138335 -2.551580
v 2.015533 -45.060379 -4.037532
vn 0.039726 4.343602 -4.136530
v -0.291492 5.539226 22.723095
vn 1.821293 5.567234 -0.785615
v 13.153712 -40.060379 -6.163436
vn 1.210044 3.748351 2.723380
v 1.023893 -39.858952 2.596833
vn 0.681985 6.112440 0.767071
v 5.267682 -40.051971 7.540080
vn 3.498563 2.397205 2.920544
v 2.129286 -9.822031 1.743093
vn -4.333751 -2.772658 -2.826728
v -2.140572 -9.959763 22.089878
vn 3.050718 2.887762 0.609257
v 2.418546 1.140800 17.469086
vn 3.679153 -3.018035 -2.708715
v 1.430457 -3.804220 -2.602447
vn 1.296512 0.016198 6.100895
v 0.342780 -17.955444 2.734667
vn -3.624652 3.509492 3.379954
v 0.684094 -7.407956 19.844273
vn 1.892886 -5.271915 -2.162152
v 0.732547 -2.498614 13.655026
vn -1.900146 3.831738 3.729645
v 0.492022 -5.450214 17.799343
vn -0.033585 -0.762779 1.826527
v -0.733573 -0.861784 19.608891
vn -2.416597 2.363099 -4.336104
v -8.104309 -41.560646 -14.688054
vn -2.171495 -4.071493 -4.026506
v 0.488331 -7.392854 24.657511
vn 3.685760 4.235039 -1.527347
v 2.601795 1.129500 -0.249354
vn 3.470538 -2.752403 -0.710645
v 3.189240 -0.853634 -0.249634
vn 2.029972 5.525575 0.007840
v 14.464408 -40.060341 -0.194319
vn 1.073466 2.883475 2.817138
v 11.860415 7.242444 1.750015
vn -3.635414 -1.532582 0.966801
v 1.437940 1.474910 20.465599
vn -0.164394 0.147086 -0.175308
v 0.742670 1.249644 22.113678
vn -0.028120 0.017865 -4.059791
v -1.614299 0.905345 -8.259648
vn -3.094397 -0.464891 3.251548
v -6.777639 -4.293693 1.750600
vn -2.368235 -3.730839 -1.910045
v -3.443318 -45.060387 -2.980445
vn -1.878591 -3.980001 3.875875
v 0.527877 8.598452 20.696295
vn -3.098523 2.915310 0.299022
v -2.848729 -0.861081 16.837065
vn 0.450678 4.801345 0.828208
v -0.398211 12.973419 30.186085
vn 5.967348 0.520387 -0.527370
v -1.917861 7.107805 22.041588
vn 0.586663 -0.086983 -3.223404
v 1.311605 -0.158278 -8.250017
vn -3.651804 4.406587 -1.440207
v -2.745486 1.140193 -0.250063
vn -4.597085 -3.871015 -1.282272
v -2.164808 -1.730421 13.859894
vn -4.051478 2.354166 -2.833144
v -13.685272 -41.564781 -9.677066
vn 3.945740 -3.400048 0.623213
v 3.342187 -46.219536 0.340498
vn 2.301349 -3.974427 -4.021000
v 0.867024 -11.854084 23.068344
vn -1.920507 3.645155 2.355413
v -2.095262 -39.857761 2.056206
vn -2.493077 -3.810289 1.583771
v -3.049450 -46.061657 1.845212
vn 5.974578 0.426361 -0.391904
v -1.928152 8.444767 23.367470
vn -2.742513 1.374282 2.751750
v -14.704134 4.787619 1.750039
vn -3.063161 -2.819210 0.083038
v -2.866958 1.139745 16.239832
vn 2.654395 0.019232 -5.660655
v 1.193617 -34.798771 -2.948567
vn 4.744388 2.384636 1.100504
v 15.949688 -41.578041 3.695627
vn -1.346685 2.472876 -4.640189
v -4.665823 -41.513767 -16.107370
vn -1.548603 -2.897356 2.711689
v -8.309500 -45.060371 14.109589
vn -4.487759 1.968688 2.489011
v -2.747380 -9.889415 1.233756
vn -5.406736 -1.085400 1.047649
v -2.882796 -2.569929 -0.116931
vn -1.455980 -2.994598 -2.774498
v -8.105146 -45.060390 -14.687388
vn -2.604686 -4.412113 -0.489062
v -3.721363 -46.060326 -1.641057
vn -2.354563 1.175622 3.860485
v -2.969522 -2.256586 -0.306960
vn -5.764377 1.338493 1.335144
v 1.592866 -7.785233 21.863819
vn 2.933969 -4.007794 -0.648782
v 2.657482 -0.861398 15.331470
vn 3.133185 -0.165297 3.247531
v 6.842288 -1.376568 1.750006
vn -3.073853 2.347549 3.659884
v -1.970593 -9.856742 2.109638
vn -1.040127 -1.533619 5.072685
v -1.023820 1.381008 19.709929
vn 1.186250 -0.058952 0.690466
v 0.023021 1.198766 22.013203
vn -5.727830 -0.883840 -0.677661
v 1.717240 -2.931857 18.258570
vn 2.306729 3.434161 -3.271368
v 1.688654 1.853025 -0.309908
vn 2.504979 -4.004906 4.056845
v 1.140427 2.623529 20.762043
vn -3.004985 -2.273660 0.307069
v -4.392289 -46.060211 -0.395236
vn -1.633148 -4.236180 3.427197
v 0.410519 14.615708 26.686363
vn 3.090584 -1.321198 2.879836
v 3.015189 -1.752709 -0.253679
vn 0.096815 -0.028429 6.184727
v -0.144568 -33.997944 2.767361
vn -5.397747 -0.674134 1.631313
v -3.306935 -1.467921 -0.524142
vn -3.604863 3.512448 -1.587557
v -3.211989 -50.927692 -1.942486
vn -2.332791 2.055677 3.861258
v 1.538422 14.918391 28.237406
vn -1.810789 4.009852 -4.071922
v 0.389557 11.822683 28.932896
vn -4.897735 2.573477 -2.582543
v 1.301022 8.874893 25.017427
vn -5.183573 -2.186916 2.190555
v 1.460092 10.123720 23.488838
vn -1.986423 3.670107 -3.668561
v 0.627756 7.197326 24.216045
vn -5.688532 0.798384 -0.854475
v 1.702104 6.377184 21.370327
vn -5.862561 -0.809540 0.477175
v 1.704046 4.444349 19.361576
vn 0.309502 4.048228 -4.154981
v -0.136049 2.511227 19.749611
vn -2.797585 2.635999 -1.868901
v 0.418112 3.684968 20.806021
vn 1.318168 1.039339 2.198284
v -1.605295 1.218632 19.690310
vn -5.140420 -2.297626 1.625973
v -2.251494 -1.614434 1.522867
vn -5.846873 -0.763525 -0.777434
v 1.646496 -12.727587 28.307674
vn -0.340521 2.808453 -5.275377
v -0.189993 -9.769970 -3.148674
vn 1.216488 5.609902 1.515563
v 8.775473 -40.060703 11.203289
vn -5.626981 0.051345 1.270025
v 1.985195 -47.667576 -0.750121
vn 4.425352 3.114183 0.158082
v 3.380167 -50.895676 0.002082
vn -2.988361 0.070058 4.875867
v 0.886147 -50.322968 -2.145927
vn -0.730422 -3.607773 2.910007
v 0.357183 -52.560070 -2.235645
vn 1.874609 4.093755 -4.053580
v -0.690334 10.498011 27.515795
vn 2.318825 -3.848339 3.835589
v -0.845817 12.488282 24.705870
vn 6.191920 -0.356421 0.373264
v -1.935113 12.081681 26.935341
vn 2.579658 1.641471 1.216517
v 1.375886 1.158669 19.413015
vn 5.899819 0.806619 -0.752699
v -1.896455 9.585899 24.665215
vn 5.890270 0.650106 -0.613890
v -1.936345 4.343463 19.294924
vn 5.568523 -1.497212 -1.379812
v -1.840302 -9.553926 25.214746
vn 5.636240 1.495463 1.505953
v -1.815327 -6.538068 20.571539
vn 5.760223 -1.041290 -1.063496
v -1.900612 -3.970228 19.467463
vn 2.510984 3.640267 3.616036
v -0.978103 -6.473825 18.991905
vn 5.794614 -1.189990 -1.090648
v -1.891869 -11.234918 26.762751
vn 0.971406 -0.136440 -0.085716
v 1.404503 0.997267 -9.036574
vn 0.165707 -3.722645 2.996211
v -0.117905 -46.061535 3.312490
vn 2.127531 0.001027 -5.458651
v -0.883800 -49.277428 1.721969
vn -1.543408 5.862365 0.151678
v -9.357933 -40.060207 1.689189
vn 2.290454 -3.973621 1.085909
v -1.438316 -13.187071 29.704294
vn -0.817598 0.014785 -6.112571
v -0.578816 -34.858723 -3.233224
vn -5.012747 0.198518 -3.107638
v 1.670789 -50.940536 0.840467
vn 1.763662 -0.006879 -5.751134
v -0.792823 -46.490959 1.729546
vn -5.044816 -2.266343 2.505143
v 1.411543 13.802542 27.076738
vn -2.022574 -3.825671 3.856782
v 0.526774 13.164104 25.278505
vn -5.969653 0.230611 -0.276452
v 1.712265 8.842459 23.572803
vn 2.398937 -3.785408 3.769464
v -0.897172 10.225479 22.443617
vn -1.877830 -3.964834 3.880909
v 0.482334 10.091447 22.215977
vn -2.799801 -3.669081 3.654801
v 0.761529 5.759641 18.109388
vn -2.823548 -2.742695 1.601191
v 1.205334 4.349553 16.602236
vn -5.935873 0.533292 -0.336627
v 1.714762 2.972731 17.891956
vn 0.018628 -3.925326 -3.845077
v -0.192936 -1.953610 19.589464
vn 6.059675 0.700727 -0.548129
v -1.923907 5.536748 20.372446
vn 2.938299 5.426053 -0.005859
v 1.227463 2.580839 7.880548
vn 0.659285 5.354513 -2.573592
v 0.206982 2.458061 -0.432293
vn 2.023673 -2.424555 1.948689
v 2.674627 -0.859455 -0.084390
vn 0.749925 -1.057146 2.404467
v 0.468937 -0.864108 19.570318
vn 5.994822 -0.462269 -0.567602
v 2.695320 -10.540541 25.035107
vn -5.762847 -1.403209 -1.347525
v 1.605876 -9.258233 24.922018
vn -5.547295 1.763458 1.780191
v 1.520611 -9.834072 23.709982
vn -2.297717 3.713009 3.710179
v 0.626281 -9.916857 22.313423
vn 6.028790 0.597073 0.679224
v 2.657846 -4.560685 19.956268
vn -1.837385 3.852190 3.888642
v 0.568858 -7.775107 20.131025
vn -0.947494 -4.261183 -4.184441
v -0.472535 -5.215557 16.181536
vn -5.815251 -0.880939 -0.905439
v 1.655107 -11.855555 27.398823
vn 5.816573 -0.890173 -0.992750
v -1.888026 -8.348892 23.876154
vn 4.804903 -1.366882 2.285458
v -1.994911 -13.682433 28.203423
vn 1.552430 -0.212220 -4.575726
v 1.473676 0.997570 -8.253130
vn 0.945707 -0.012905 6.124991
v 0.350466 -22.026598 2.735769
vn 1.855311 5.613146 -0.429165
v 8.742994 -40.060005 -3.535775
vn 2.775609 -3.930690 1.084957
v 3.870158 -45.061249 1.384359
vn -2.342514 -0.238086 -5.446016
v 0.568915 -43.923325 1.731629
vn -2.463767 0.051749 5.209447
v 0.852972 -46.671253 -2.177878
vn -5.070776 -0.001260 -3.056794
v 1.672573 -48.625938 0.834630
vn -1.830576 -0.031360 -5.694647
v 0.562094 -48.335979 1.725105
vn 3.976774 2.241074 3.090430
v 2.905607 -51.088898 2.335915
vn -1.595411 0.162684 -5.696413
v 0.556946 -50.979267 1.736821
vn 1.556490 3.588828 -2.631859
v 1.397225 -39.857658 -2.875308
vn 3.097105 -3.625141 -1.088266
v 3.235137 -46.103878 -1.395383
vn -3.474061 3.337046 -3.385945
v 0.982347 5.082686 21.637909
vn -3.043982 1.638700 2.196005
v -2.865504 14.075773 29.098066
vn 5.073051 -2.455094 2.463710
v -1.660582 12.274887 25.584106
vn 0.210729 -0.082972 3.876107
v -0.256195 3.297416 15.445382
vn 5.683332 -1.123814 -0.753410
v -1.931553 -2.492128 17.938154
vn -1.873368 -5.226454 -2.276356
v -0.951079 -2.541001 13.657736
vn -5.777089 -1.157642 -1.128029
v 1.635854 -7.955828 23.532579
vn -1.998748 4.966731 -2.582603
v -1.339305 2.173159 -0.385219
vn -2.938356 0.747545 -2.581127
v -15.068519 3.970165 -0.249990
vn 2.382104 -3.963752 -3.962627
v -0.746930 -4.323694 21.629488
vn 1.472173 -4.067208 -4.152652
v -0.594180 -5.867157 23.294708
vn 4.713633 -2.647722 -2.679027
v 2.032281 -10.664798 23.041080
vn 5.868746 -0.950613 -0.968205
v -1.885581 -7.279370 22.824974
vn 5.311661 1.731168 1.774245
v -1.804461 -8.806470 22.774652
vn 2.729804 2.811633 3.890200
v -1.057972 -5.188687 17.747149
vn -2.998326 -0.032144 5.439862
v -1.450977 -34.802231 2.438024
vn -2.859962 3.571608 -1.125297
v -2.977582 -39.852543 -1.214494
vn 4.437989 1.865916 -3.686875
v 2.043671 -9.550548 -2.006361
vn 2.543933 -1.621962 2.336195
v -1.774737 -1.899497 16.410288
vn -4.797351 -2.303777 -2.258843
v 1.357654 -3.866637 20.166414
vn 0.110704 6.124445 0.971018
v 2.496260 -40.060284 9.013147
vn -1.766096 -0.004766 -5.713377
v 0.481352 -45.857990 1.739778
vn -6.003773 -0.248589 -0.297231
v 2.002225 -43.891174 -0.159570
vn 5.661815 -0.465299 -0.506969
v 2.831931 -2.940000 17.216154
vn 3.004151 -2.644018 0.388451
v 3.853439 -52.560432 0.390136
vn -0.300564 2.508702 4.275616
v -0.184797 -51.134579 3.791796
vn 6.099289 -1.011378 0.107270
v 2.641647 -2.615593 -0.397321
vn -3.090110 3.476962 0.074725
v -3.132448 -39.860413 -0.227085
vn 0.543503 5.374588 -2.122163
v 2.749034 -40.060253 -9.144032
vn 2.919523 3.509187 3.537760
v -1.049872 -12.306507 24.908558
vn 6.065495 0.142677 -0.117038
v -1.943740 10.605320 25.445629
vn 3.167634 3.522019 -2.229763
v 2.747972 -50.954823 -2.342470
vn 5.513167 -1.864058 1.918930
v -1.748978 6.729468 20.347698
vn 0.504955 2.335241 4.864159
v 1.537774 -41.569942 16.192743
vn -5.758078 1.619789 1.303468
v 1.553068 -3.514711 17.486830
vn -2.705405 0.162691 5.227784
v 0.845313 -51.212116 -2.159344
vn 2.214826 -3.342943 0.313639
v -1.369324 -0.922423 17.560059
vn 1.700266 4.299428 -3.822440
v -0.607195 8.787315 25.841238
vn 2.990935 -2.656527 -1.059253
v 3.898553 -46.054810 -1.784408
vn 0.664565 2.412162 -4.825383
v 2.200166 -41.551640 -16.594557
vn -5.908532 0.329908 -0.489412
v 1.703118 12.209263 27.054144
vn -1.260621 5.532362 1.582445
v -9.225222 -40.060295 11.101038
vn 2.838029 3.603017 3.444035
v -1.039275 -8.144339 20.696856
vn -2.668311 -2.975692 1.429038
v -2.831814 -0.859784 0.185048
vn 1.081614 0.003810 6.080228
v 0.349292 -12.642915 2.744011
vn 1.463539 -1.591067 -4.818451
v -5.103838 -0.820985 -0.248540
vn -4.915688 0.035910 -3.244174
v 1.631587 -45.200489 0.912247
vn 1.867289 3.303474 0.187768
v -1.263203 1.072319 17.648855
vn -1.983482 3.031337 -4.508873
v -1.510763 -50.776493 -3.592119
vn -4.798409 2.973348 0.950886
v -2.797651 -9.726614 0.436445
vn -0.820402 -4.680593 0.495310
v 0.403948 -12.772693 30.103403
vn -5.738047 -0.997079 -1.029516
v 1.663984 -11.049894 26.598404
vn -5.616639 1.520393 1.513608
v 1.573072 -11.434585 25.438723
vn -3.132411 3.381143 3.632709
v 0.772474 -12.561950 25.061630
vn -5.615961 -0.022784 1.213557
v 1.993320 -49.517784 -0.722562
vn 5.566940 1.693197 1.226130
v -1.834090 -3.489018 17.643333
vn 0.713539 1.081994 2.259998
v 1.099489 1.150439 19.290577
vn 2.679965 2.738988 1.344553
v -1.589573 -3.906735 16.676327
vn 2.566252 2.423155 4.246012
v 8.604515 -41.560387 13.756356
vn 1.900640 5.484542 0.836276
v 13.274868 -40.060234 5.729330
vn -6.020080 0.021149 1.363407
v -3.090815 -35.108715 0.291661
vn 2.353168 -2.490972 1.844542
v 3.118697 -52.560394 2.199897
vn 4.938766 2.690085 1.899784
v 2.506979 -9.666715 0.705278
vn -2.753761 3.509123 3.091980
v 0.793129 -14.234536 26.675655
vn -1.816994 2.421488 5.210139
v -1.160842 -9.673318 2.437122
vn -2.629506 -0.037852 5.333541
v 0.852852 -47.946781 -2.160504
vn 2.151029 4.726896 1.628998
v 7.832136 -39.860989 4.398055
vn -4.781864 -0.002225 4.059995
v 1.153343 -48.399399 -1.852313
vn -5.776480 -1.044303 -0.989392
v 1.663188 -5.915138 21.409155
vn 2.785174 -3.564471 3.647130
v -1.014311 7.939919 20.231169
vn 0.196944 0.134423 3.932276
v -0.214321 -3.034827 15.455932
vn -2.914839 -4.133714 -0.511910
v -2.845809 -0.860165 14.913292
vn -5.560919 1.910906 1.109315
v 1.547655 -13.334188 27.328804
vn 2.957049 0.089286 -5.369000
v -0.873322 -50.830147 1.706688
vn -0.066870 0.022982 -3.247281
v -1.202669 -2.189511 -8.249663
vn 2.314470 0.013369 5.359397
v -0.942080 -45.942326 -2.232013
vn 2.878987 2.441292 -3.888000
v 9.728399 -41.549839 -13.494800
vn 3.009657 1.684055 2.084117
v 2.633255 14.074602 29.099344
vn -3.001319 -3.629862 -0.387004
v -4.327348 -45.060749 -1.038465
vn 5.343623 -0.057503 1.914315
v -2.149175 -43.866913 -1.084894
vn 2.927819 3.416246 3.594846
v -1.068735 -10.466622 23.062683
vn 4.464686 2.890511 -2.909272
v -1.438441 11.613132 27.940886
vn -0.192230 -0.017884 -0.013190
v -5.023765 -2.724241 0.011310
vn -2.594059 -1.636620 2.202151
v 1.533657 -1.905397 16.422630
vn -3.132868 0.165722 3.036073
v -7.076802 1.646097 42.749985
vn -0.568219 2.393589 4.795280
v -2.047077 -41.554478 16.167025
vn -0.108688 -2.769339 3.027792
v -0.085041 -42.612068 -2.242793
vn -1.846462 -3.842657 3.860243
v 0.528360 7.518229 19.591871
vn 5.319337 -2.255724 1.958890
v -1.693238 5.370471 18.748903
vn -4.778178 2.318254 -0.516636
v -3.098951 -9.895897 -0.569635
vn -2.972659 -2.469869 0.039002
v -4.161621 -52.560421 0.072924
vn 6.043637 0.211207 0.099886
v -1.948239 13.406695 28.321951
vn 2.081783 -0.069984 5.738397
v -0.750214 -47.647324 -2.234658
vn 5.643446 1.544274 1.524994
v -1.798670 -10.852365 24.854481
vn -1.841735 -5.734112 0.027803
v -0.894626 -2.566227 6.707730
vn 5.195903 0.035840 -2.737105
v -1.984600 -50.531082 0.729281
vn 2.266962 0.050697 5.321857
v -0.956402 -44.695690 -2.242853
vn 3.074263 -3.821212 -3.805068
v -0.880942 -8.468775 25.630053
vn -3.008414 -3.893180 -3.784563
v 0.372537 -12.110978 29.491983
vn -1.772783 3.598312 4.147775
v 0.594509 -6.758412 19.171259
vn -1.692902 -2.253256 -2.503412
v -2.655076 -46.059025 -3.780078
vn 0.975720 -2.891397 2.955908
v 5.320638 -45.060413 15.394260
vn -0.296381 -0.014956 -3.516861
v -0.937993 -3.276464 -8.323420
vn -4.277515 -3.296473 3.177052
v 1.050224 9.255382 22.001434
vn 1.903470 -3.614534 -2.374416
v 2.165673 -46.054401 -2.928843
vn 5.612921 -1.737987 -1.655874
v 2.439455 -5.996390 19.197535
vn -2.945480 4.066452 -0.510422
v -2.737422 1.139851 14.558699
vn -0.609634 -3.020570 -3.077186
v -3.287935 -45.060406 -16.440441
vn 1.406632 -4.053142 2.381006
v -1.069466 -52.553818 -2.172935
vn -5.534782 0.112316 1.563692
v 1.961926 -45.275101 -0.891364
vn -1.220489 4.254273 4.292255
v -0.610503 -3.306713 22.079815
vn 1.136337 -0.008539 6.086977
v 0.344376 -29.583532 2.732110
vn -3.082808 -2.924861 -0.507509
v -16.400042 -45.060402 -3.109233
vn 0.807236 -0.019978 6.146727
v -0.619422 -49.785347 -2.262876
vn -2.028410 -0.011701 -5.557412
v 0.598347 -50.158924 1.725977
vn -1.611885 4.166384 -4.099860
v -0.901242 13.562870 24.375528
vn -3.641074 -3.176156 -0.282636
v -3.367010 -0.880103 -0.235645
vn -3.097842 0.500001 3.247443
v -6.756130 4.672929 1.751443
vn -1.877729 2.397224 2.810309
v -2.634141 -51.070984 2.901744
vn 5.322577 0.599186 1.669297
v -2.173708 -51.074856 -0.888414
vn -5.038960 0.873549 -3.037070
v -2.707080 -10.086581 -1.811324
vn 5.240724 -2.284168 2.263186
v -1.680744 8.708748 22.055899
vn -1.331431 -3.498567 2.800717
v -1.597422 -46.062393 2.926113
vn 1.039988 0.004435 6.146627
v 0.324803 -31.455822 2.733290
vn -1.834018 0.138993 5.213930
v 0.845901 -49.342365 -2.190065
vn -0.120525 4.643145 -1.849190
v -0.107946 2.939226 -0.018584
vn 3.132279 0.165763 3.247376
v 6.842208 1.662152 1.749134
vn -5.594984 0.119059 0.999645
v 2.006522 -51.507626 -0.736758
vn -5.657437 0.022943 1.575619
v 1.972095 -50.517323 -0.769646
vn -5.240934 0.015358 -2.787734
v 1.716797 -46.779240 0.786789
vn -2.580819 2.556311 1.991219
v 1.186268 -4.125359 16.460386
vn 3.229510 -2.534234 3.145052
v -1.396279 4.321457 16.617062
vn 1.656481 2.348252 4.565882
v 5.619850 -41.581478 15.300270
vn -1.708051 -2.423722 2.258048
v -12.825065 -6.643503 1.749922
vn 5.953858 0.004632 1.618015
v 2.814404 -34.904175 0.368705
vn 2.938542 2.079021 1.405669
v -1.897043 1.864768 16.943977
vn 1.907334 -0.001187 5.981690
v 0.748727 -20.247822 2.612515
vn -1.568465 1.570633 -1.571561
v 4.882640 7.639640 -0.249997
vn 2.481003 4.242777 1.005738
v 5.883059 7.639166 2.210670
vn 3.332694 0.075096 2.130191
v 0.339235 -24.077204 2.728683
vn 0.921734 0.028128 -0.095374
v 0.295415 -20.761086 2.735186
vn 4.964883 2.391500 0.074400
v 16.375265 -41.551971 -0.179260
vn -2.470405 2.575314 -3.533035
v -1.879243 -9.870359 -2.679828
vn 1.180812 -0.875105 1.747292
v -0.021724 -0.860409 19.743017
vn -6.048923 0.082381 -1.037680
v -2.878410 -5.504472 -0.589493
vn -3.220165 2.366505 3.682416
v -11.050760 -41.559792 12.136658
vn 4.906382 -1.734032 -1.626760
v -1.889896 -6.023007 21.586010
vn -4.166551 3.004529 2.964888
v -1.991046 -7.535834 25.397436
vn -1.922406 -3.365733 0.029446
v 0.962409 -0.811093 17.712160
vn -2.720071 1.311658 2.476124
v 1.582058 2.342575 16.369120
vn -2.554483 3.030668 0.596435
v 1.356309 1.363474 17.407507
vn -2.419166 4.478662 1.489366
v -8.210505 -39.863434 4.195957
vn 4.496116 3.736734 -0.665663
v 2.409799 1.257116 14.309635
vn -5.697172 -1.730826 1.771566
v 1.480093 5.742200 19.183949
vn 1.635582 5.340779 -2.178172
v 0.366757 2.900786 13.604594
vn 2.046236 2.462449 -3.877629
v 1.513833 -9.832378 -2.776563
vn -1.705091 3.606328 2.909367
v -2.111448 -51.032555 2.656096
vn 5.372797 -2.284233 -1.101589
v 2.393515 -2.946906 -1.440348
vn 3.847989 -3.376618 3.635279
v 1.911312 3.604617 20.837776
vn -1.650505 -4.049159 -4.109242
v 0.399398 -10.852864 28.196495
vn 2.063311 -4.061635 4.089604
v 0.807011 7.504925 25.822033
vn 2.407174 -1.805821 -2.582536
v 2.477831 -2.900299 -8.250003
vn 2.652724 1.544549 -2.688396
v 2.559988 1.016746 -8.249694
vn -1.819851 3.991632 -3.995535
v 0.445943 9.536378 26.609392
vn 1.761212 2.527360 -2.702915
v 1.902563 1.721246 -8.250029
vn -5.880217 0.304955 -0.340625
v 1.730199 10.932674 25.720356
vn -5.941285 1.044535 1.045887
v -2.698694 -2.497666 18.820639
vn 5.950959 -0.798204 -0.846327
v -1.894292 -4.963719 20.448048
vn -1.592008 -3.903545 4.253039
v 0.531213 6.663954 18.772703
vn -0.015046 0.000001 6.281047
v -0.418514 -44.298103 -2.250594
vn -2.023037 -3.797963 3.812980
v 0.539373 11.494016 23.601803
vn 3.097981 -0.496155 3.247490
v 6.522282 -4.386366 1.750416
vn 2.589208 1.950323 4.171100
v 2.195967 -51.121971 2.996045
vn -2.520081 3.890045 3.593954
v 0.644966 -12.109737 24.561905
vn -2.800995 3.671407 3.528735
v 0.750862 -8.651517 21.140200
vn -1.164296 4.225996 3.424531
v 0.488882 -4.588823 16.923422
vn -2.981980 3.488953 3.632440
v 0.847684 -6.117649 18.774773
vn 1.507945 4.145129 4.088004
v -0.365350 -9.330688 21.722254
vn -2.783108 3.401346 3.729978
v 0.704654 -10.614675 23.026020
vn -5.207550 -2.493038 -2.450997
v 1.366188 -10.145713 26.344017
vn 0.989693 4.285481 4.316939
v 0.222720 -5.650570 24.438845
vn -1.174170 -3.576716 -3.424587
v -0.581969 -4.195999 -3.032904
vn 2.461712 3.615054 -4.077071
v -0.998409 6.635139 23.501860
vn 4.642883 -3.725708 -1.473591
v 1.823590 -1.874837 13.968698
vn 2.974639 0.688961 2.687110
v 14.854199 3.706398 1.749968
vn 2.681526 -4.777144 -0.175858
v 2.488434 -0.862262 13.978813
vn -1.680228 -4.287137 3.585184
v 0.577792 4.718322 16.812380
vn -1.571454 -2.661260 0.621885
v -2.059466 -15.414585 27.479074
vn -2.377027 4.560989 -2.513717
v 0.482920 1.050007 18.069294
vn 2.121833 1.059494 -0.340544
v 1.168456 1.162694 19.930189
vn 2.142990 -2.653387 -2.079622
v -1.594598 -42.609837 1.139195
vn 5.078259 0.015737 2.852668
v -1.861836 -47.011833 -1.405724
vn -4.295599 -3.246473 3.211603
v 0.924722 8.241622 20.800085
vn -0.249319 0.610084 1.846624
v -2.342965 -39.862164 8.702054
vn 3.107258 -0.284959 -2.982215
v 14.882053 -2.777551 -0.249978
vn 2.029913 -2.895946 -2.368175
v 10.347590 -45.060398 -13.039680
vn -0.225902 4.367216 4.408505
v 0.329417 -13.508718 25.900646
vn -5.907721 -1.041661 -0.999600
v 1.653673 -10.255542 25.727177
vn 0.000546 -3.141661 3.141569
v 3.768780 -0.860351 42.749828
vn 2.709620 3.757869 1.174894
v 2.677725 -39.856956 0.971910
vn -3.132663 3.414449 4.137904
v -1.403971 -1.792224 20.146364
vn -1.725348 5.496805 -1.121835
v -12.440254 -40.060371 -8.115824
vn -0.328478 2.417484 -4.896251
v -1.370808 -41.573215 -16.715044
vn -1.858204 3.644283 -2.385477
v -1.908224 -39.848461 -2.725312
vn 1.021233 -0.006699 6.121807
v 0.345146 -24.543621 2.736546
vn 2.722226 0.074134 5.209556
v -1.045920 -50.742546 -2.161420
vn -4.798504 2.450632 0.746805
v -16.404051 -41.525421 2.437305
vn -4.519816 2.411913 1.874211
v -15.358382 -41.551235 6.085686
vn -2.846628 -2.758756 -1.264786
v -4.026964 -46.061054 -1.931872
vn 3.435973 0.009714 5.044252
v -1.120709 -48.788177 -2.084114
vn -6.200626 0.027588 -0.607883
v -3.115353 -35.313591 -0.423802
vn -0.509861 5.510561 1.982327
v -3.896611 -40.060421 13.852980
vn 1.736632 3.997363 -4.020244
v -0.745671 4.201621 21.199600
vn -5.457208 1.376845 1.410689
v 1.561862 -4.867947 18.783730
vn 2.548314 -5.671986 -0.028899
v 1.067933 -2.357923 6.448028
vn -2.526760 1.733189 -2.647236
v -2.845545 0.965085 -8.249516
vn 0.037314 2.431959 4.552362
v -0.220239 -9.860847 2.740571
vn -1.920229 5.489866 0.816554
v -8.669716 -40.058979 3.639899
vn -5.746800 1.292568 -1.294577
v 1.668000 5.356604 20.497717
vn -5.901112 0.817904 1.051856
v -2.873662 -11.448128 27.124212
vn 1.168600 -4.586781 0.641573
v -0.843102 -12.848158 30.041828
vn -4.444419 -2.600499 -2.470776
v -2.171099 -6.007147 18.173689
vn -5.840326 -0.031753 -0.033877
v -2.945728 -6.808991 21.791052
vn 6.283191 0.000000 0.000000
v -5.117360 -0.945493 21.418953
vn 6.283185 0.000000 0.000000
v -5.117360 -4.195495 21.130102
vn -6.196364 -0.982204 0.000860
v -6.766818 -4.344005 22.250288
vn -6.249106 -0.653418 0.000864
v -6.916282 -2.888497 22.250362
vn -3.071208 -3.802870 -0.000003
v -6.117349 -7.360350 22.286659
vn -6.142414 -1.322563 -0.000003
v -6.447497 -5.827026 22.250299
vn -6.265540 -0.331087 -0.000041
v -7.076847 -1.379936 22.250370
vn -6.283185 0.001754 -0.000167
v -7.076158 0.151961 22.252808
vn -6.265670 0.331618 0.000037
v -7.075994 1.663606 22.252804
vn 3.141461 3.141594 -0.000000
v -5.117361 7.639640 21.250002
vn 6.283185 0.000001 -0.000000
v -5.117360 4.885661 21.250002
vn -0.000150 6.283186 -0.000003
v -5.617362 7.639619 22.250036
vn 6.261093 0.371867 0.006435
v -5.117360 1.759661 21.250002
vn 0.001574 -6.283185 -0.000315
v 1.369165 -0.860380 31.343822
vn 0.000844 -6.283185 -0.000100
v 0.863262 -0.860551 30.769651
vn 2.785344 4.591015 -0.000701
v -4.993985 1.139769 21.356403
vn -0.000746 6.283185 0.000253
v -4.221158 1.140178 31.902798
vn -0.000536 -6.283186 0.000183
v -0.674290 -0.860353 29.645683
vn 0.001133 6.283185 0.000242
v -2.788323 1.139695 31.274389
vn -3.071259 3.802716 -0.000003
v -6.117360 7.639616 22.249826
vn -6.142447 1.322398 0.000012
v -6.436533 6.156902 22.250023
vn -0.000063 -6.283186 -0.000002
v -5.617352 -7.360350 22.286659
vn 3.141530 -3.141593 -0.000000
v -5.117360 -7.360360 21.250002
vn -6.247957 0.664416 0.000182
v -6.915444 3.177661 22.252798
vn -6.195088 0.994415 0.000034
v -6.755916 4.673567 22.250708
vn -3.141423 -3.141597 0.000000
v 4.882640 -7.360360 21.250000
vn -6.283185 0.000018 0.000003
v 4.882636 -4.559486 21.250002
vn 0.000177 -6.283185 -0.000004
v 5.382645 -7.360333 22.250298
vn -6.283185 0.000012 0.000002
v 4.882640 -4.110358 21.836903
vn 3.071213 -3.802871 -0.000004
v 5.882645 -7.360332 22.250061
vn 6.195546 0.991536 0.000022
v 6.522953 4.663258 22.250177
vn 6.247979 0.664213 0.000130
v 6.681701 3.167977 22.249548
vn -3.140104 3.141593 -0.000000
v 4.882640 7.639640 21.250002
vn 0.001488 6.283185 -0.000037
v 5.382850 7.639403 22.480335
vn -6.283185 0.000000 0.000000
v 4.882640 4.513652 21.250002
vn 6.142968 1.319985 -0.000138
v 6.285722 5.767504 22.250166
vn 6.142672 1.321362 -0.000038
v 6.202127 6.156485 22.480316
vn 3.071214 3.802839 -0.000012
v 5.882848 7.639403 22.480335
vn 0.007269 6.283176 -0.000472
v 3.686052 1.139843 29.068226
vn -2.731261 4.692939 -0.000000
v 4.741799 1.139649 21.249903
vn 0.003118 6.283176 -0.000001
v 3.580173 1.140225 30.109543
vn -3.141580 -3.141603 0.000001
v 4.882629 -0.860341 21.836569
vn 0.000082 -6.283185 -0.000003
v 3.295749 -0.860341 31.064014
vn -0.003575 6.283183 0.000487
v 3.296355 1.139706 31.415859
vn 6.265535 0.332629 0.000018
v 6.842299 1.659321 22.249546
vn 6.283185 -0.000529 0.000024
v 6.842339 0.139961 22.249983
vn 0.000192 -6.283185 -0.000032
v 1.812681 -0.860353 31.345016
vn 0.000068 -6.283185 -0.000005
v 2.738830 -0.860353 31.064266
vn 6.142565 -1.321862 -0.000053
v 6.201866 -5.877757 22.250292
vn 6.195297 -0.993155 -0.000033
v 6.521682 -4.390787 22.250200
vn 6.247924 -0.664721 0.000008
v 6.682039 -2.884509 22.250202
vn -0.000029 6.283185 0.000022
v -1.568745 1.139706 31.415859
vn 5.906748 1.821290 0.005715
v -5.058465 1.263764 21.356403
vn 6.283177 0.000000 0.000000
v -5.117360 -0.945493 29.525867
vn 3.141595 -3.141593 0.000000
v -5.117360 -0.860356 29.405918
vn -5.463643 3.102742 0.000001
v 4.812220 1.263657 21.250002
vn 6.265578 -0.332761 0.000026
v 6.842043 -1.379610 22.249998
vn -5.873400 1.551397 0.000001
v 4.882640 1.387657 21.250002
# 753 vertices, 0 vertices normals

f 262//262 2//2 1//1
f 1//1 417//417 262//262
f 262//262 417//417 581//581
f 7//7 10//10 585//585
f 7//7 585//585 3//3
f 266//266 10//10 4//4
f 263//263 266//266 368//368
f 4//4 368//368 266//266
f 4//4 6//6 368//368
f 382//382 10//10 350//350
f 266//266 263//263 10//10
f 6//6 10//10 7//7
f 6//6 7//7 3//3
f 6//6 3//3 368//368
f 6//6 4//4 10//10
f 368//368 674//674 263//263
f 350//350 263//263 255//255
f 674//674 13//13 255//255
f 674//674 3//3 8//8
f 3//3 24//24 8//8
f 674//674 8//8 220//220
f 5//5 10//10 382//382
f 5//5 382//382 350//350
f 5//5 580//580 10//10
f 5//5 378//378 580//580
f 580//580 675//675 11//11
f 580//580 111//111 10//10
f 580//580 11//11 111//111
f 11//11 12//12 111//111
f 11//11 675//675 12//12
f 111//111 360//360 10//10
f 521//521 399//399 267//267
f 573//573 267//267 681//681
f 573//573 681//681 360//360
f 573//573 297//297 225//225
f 350//350 255//255 378//378
f 378//378 14//14 675//675
f 255//255 264//264 14//14
f 13//13 16//16 17//17
f 255//255 13//13 264//264
f 264//264 17//17 15//15
f 17//17 16//16 116//116
f 15//15 17//17 116//116
f 489//489 16//16 9//9
f 116//116 676//676 318//318
f 676//676 270//270 19//19
f 303//303 262//262 563//563
f 319//319 399//399 289//289
f 262//262 581//581 563//563
f 563//563 20//20 22//22
f 563//563 22//22 289//289
f 581//581 592//592 20//20
f 581//581 678//678 592//592
f 586//586 417//417 642//642
f 568//568 431//431 546//546
f 289//289 22//22 591//591
f 22//22 21//21 128//128
f 23//23 25//25 679//679
f 23//23 26//26 25//25
f 23//23 585//585 26//26
f 679//679 25//25 680//680
f 25//25 26//26 680//680
f 679//679 680//680 246//246
f 585//585 10//10 26//26
f 26//26 28//28 680//680
f 27//27 618//618 28//28
f 27//27 29//29 618//618
f 27//27 26//26 29//29
f 26//26 379//379 29//29
f 29//29 379//379 618//618
f 26//26 35//35 379//379
f 8//8 679//679 246//246
f 220//220 8//8 9//9
f 8//8 246//246 432//432
f 9//9 214//214 500//500
f 432//432 246//246 690//690
f 30//30 624//624 214//214
f 680//680 28//28 31//31
f 31//31 239//239 246//246
f 31//31 514//514 239//239
f 514//514 28//28 618//618
f 551//551 26//26 10//10
f 394//394 372//372 32//32
f 592//592 335//335 314//314
f 335//335 664//664 314//314
f 32//32 595//595 333//333
f 32//32 333//333 227//227
f 569//569 552//552 33//33
f 552//552 569//569 325//325
f 222//222 663//663 269//269
f 26//26 227//227 35//35
f 624//624 36//36 214//214
f 624//624 239//239 36//36
f 500//500 683//683 489//489
f 500//500 533//533 683//683
f 214//214 36//36 371//371
f 259//259 36//36 339//339
f 214//214 44//44 533//533
f 239//239 684//684 238//238
f 36//36 666//666 135//135
f 618//618 379//379 37//37
f 379//379 38//38 37//37
f 35//35 38//38 379//379
f 35//35 39//39 38//38
f 39//39 506//506 558//558
f 558//558 684//684 37//37
f 684//684 558//558 147//147
f 683//683 562//562 270//270
f 562//562 533//533 40//40
f 388//388 488//488 42//42
f 593//593 231//231 615//615
f 45//45 615//615 412//412
f 615//615 231//231 412//412
f 45//45 412//412 224//224
f 46//46 547//547 47//47
f 47//47 575//575 258//258
f 654//654 237//237 47//47
f 48//48 49//49 46//46
f 46//46 49//49 547//547
f 49//49 688//688 358//358
f 48//48 327//327 398//398
f 49//49 589//589 300//300
f 300//300 366//366 688//688
f 50//50 358//358 688//688
f 301//301 50//50 218//218
f 50//50 366//366 480//480
f 52//52 606//606 53//53
f 606//606 54//54 53//53
f 53//53 54//54 359//359
f 52//52 481//481 51//51
f 40//40 533//533 380//380
f 51//51 59//59 54//54
f 96//96 697//697 696//696
f 698//698 55//55 699//699
f 40//40 380//380 522//522
f 388//388 42//42 537//537
f 660//660 460//460 284//284
f 660//660 58//58 326//326
f 342//342 285//285 660//660
f 660//660 286//286 273//273
f 273//273 286//286 692//692
f 334//334 693//693 632//632
f 528//528 530//530 491//491
f 425//425 528//528 426//426
f 528//528 425//425 487//487
f 700//700 61//61 701//701
f 359//359 701//701 698//698
f 583//583 211//211 653//653
f 570//570 509//509 482//482
f 620//620 583//583 673//673
f 63//63 583//583 653//653
f 52//52 64//64 481//481
f 64//64 65//65 374//374
f 481//481 217//217 51//51
f 481//481 66//66 217//217
f 53//53 70//70 64//64
f 64//64 590//590 65//65
f 481//481 374//374 66//66
f 66//66 374//374 67//67
f 66//66 67//67 69//69
f 374//374 65//65 68//68
f 374//374 68//68 67//67
f 67//67 68//68 69//69
f 66//66 75//75 217//217
f 66//66 69//69 75//75
f 69//69 68//68 65//65
f 51//51 217//217 59//59
f 217//217 366//366 518//518
f 518//518 366//366 300//300
f 359//359 70//70 53//53
f 71//71 703//703 702//702
f 75//75 77//77 217//217
f 298//298 590//590 64//64
f 298//298 703//703 704//704
f 398//398 384//384 516//516
f 522//522 251//251 381//381
f 410//410 56//56 567//567
f 50//50 480//480 448//448
f 221//221 89//89 598//598
f 304//304 516//516 544//544
f 77//77 579//579 366//366
f 544//544 516//516 410//410
f 367//367 567//567 478//478
f 73//73 579//579 233//233
f 73//73 233//233 221//221
f 69//69 65//65 74//74
f 75//75 69//69 74//74
f 76//76 706//706 705//705
f 707//707 76//76 705//705
f 75//75 706//706 708//708
f 304//304 544//544 79//79
f 77//77 375//375 579//579
f 245//245 367//367 694//694
f 544//544 362//362 79//79
f 671//671 710//710 709//709
f 711//711 98//98 712//712
f 375//375 474//474 103//103
f 375//375 77//77 236//236
f 77//77 235//235 236//236
f 82//82 84//84 302//302
f 389//389 216//216 409//409
f 235//235 84//84 82//82
f 393//393 219//219 86//86
f 671//671 713//713 710//710
f 98//98 714//714 712//712
f 87//87 390//390 261//261
f 307//307 390//390 87//87
f 65//65 715//715 707//707
f 65//65 716//716 715//715
f 542//542 332//332 560//560
f 221//221 105//105 588//588
f 80//80 505//505 91//91
f 440//440 475//475 594//594
f 422//422 373//373 91//91
f 91//91 226//226 503//503
f 212//212 101//101 213//213
f 422//422 564//564 554//554
f 422//422 420//420 564//564
f 93//93 433//433 693//693
f 284//284 433//433 93//93
f 93//93 693//693 211//211
f 693//693 197//197 211//211
f 197//197 693//693 523//523
f 653//653 211//211 197//197
f 94//94 717//717 700//700
f 95//95 717//717 718//718
f 59//59 697//697 718//718
f 70//70 699//699 702//702
f 55//55 100//100 71//71
f 61//61 95//95 55//55
f 55//55 95//95 100//100
f 99//99 671//671 100//100
f 298//298 704//704 719//719
f 719//719 283//283 720//720
f 557//557 71//71 97//97
f 96//96 100//100 95//95
f 71//71 100//100 98//98
f 71//71 98//98 97//97
f 97//97 76//76 557//557
f 557//557 76//76 283//283
f 98//98 100//100 191//191
f 213//213 101//101 92//92
f 283//283 76//76 102//102
f 103//103 106//106 105//105
f 588//588 105//105 207//207
f 105//105 226//226 104//104
f 106//106 226//226 105//105
f 104//104 207//207 105//105
f 103//103 92//92 106//106
f 103//103 474//474 92//92
f 92//92 363//363 106//106
f 101//101 363//363 92//92
f 226//226 106//106 564//564
f 1//1 109//109 417//417
f 417//417 109//109 228//228
f 521//521 108//108 2//2
f 107//107 504//504 110//110
f 12//12 512//512 111//111
f 247//247 512//512 115//115
f 247//247 112//112 111//111
f 111//111 112//112 668//668
f 247//247 115//115 112//112
f 472//472 113//113 511//511
f 111//111 668//668 268//268
f 316//316 668//668 153//153
f 114//114 14//14 501//501
f 512//512 114//114 115//115
f 116//116 318//318 119//119
f 318//318 471//471 119//119
f 318//318 434//434 125//125
f 112//112 549//549 668//668
f 549//549 122//122 668//668
f 668//668 120//120 137//137
f 122//122 121//121 120//120
f 120//120 126//126 137//137
f 120//120 121//121 126//126
f 115//115 275//275 549//549
f 549//549 275//275 122//122
f 501//501 118//118 275//275
f 118//118 338//338 275//275
f 118//118 463//463 338//338
f 338//338 121//121 122//122
f 121//121 338//338 124//124
f 338//338 354//354 124//124
f 338//338 463//463 354//354
f 117//117 154//154 276//276
f 126//126 121//121 124//124
f 137//137 126//126 151//151
f 126//126 124//124 151//151
f 431//431 241//241 21//21
f 587//587 241//241 470//470
f 127//127 534//534 241//241
f 127//127 435//435 527//527
f 228//228 109//109 497//497
f 127//127 497//497 534//534
f 497//497 129//129 534//534
f 21//21 241//241 128//128
f 241//241 534//534 128//128
f 534//534 645//645 128//128
f 534//534 469//469 645//645
f 110//110 210//210 129//129
f 280//280 415//415 369//369
f 280//280 369//369 130//130
f 320//320 278//278 430//430
f 430//430 130//130 131//131
f 333//333 430//430 131//131
f 642//642 223//223 559//559
f 582//582 519//519 495//495
f 130//130 132//132 131//131
f 153//153 148//148 464//464
f 668//668 137//137 153//153
f 148//148 574//574 35//35
f 339//339 36//36 135//135
f 133//133 150//150 254//254
f 672//672 607//607 149//149
f 607//607 672//672 254//254
f 119//119 672//672 135//135
f 135//135 539//539 119//119
f 340//340 136//136 288//288
f 340//340 288//288 143//143
f 288//288 136//136 413//413
f 136//136 144//144 413//413
f 136//136 531//531 144//144
f 605//605 531//531 136//136
f 153//153 140//140 148//148
f 148//148 140//140 139//139
f 140//140 287//287 139//139
f 139//139 287//287 138//138
f 148//148 139//139 138//138
f 153//153 145//145 141//141
f 153//153 141//141 140//140
f 140//140 146//146 287//287
f 271//271 463//463 123//123
f 354//354 271//271 532//532
f 119//119 539//539 142//142
f 271//271 143//143 532//532
f 532//532 145//145 377//377
f 138//138 413//413 144//144
f 287//287 413//413 138//138
f 143//143 288//288 532//532
f 288//288 146//146 532//532
f 145//145 532//532 146//146
f 145//145 146//146 141//141
f 287//287 146//146 288//288
f 35//35 574//574 39//39
f 506//506 574//574 605//605
f 147//147 506//506 605//605
f 574//574 148//148 605//605
f 605//605 148//148 531//531
f 138//138 531//531 148//148
f 144//144 531//531 138//138
f 596//596 134//134 609//609
f 41//41 584//584 244//244
f 41//41 677//677 43//43
f 137//137 151//151 152//152
f 377//377 152//152 614//614
f 151//151 124//124 614//614
f 153//153 137//137 377//377
f 152//152 377//377 137//137
f 145//145 153//153 377//377
f 532//532 377//377 354//354
f 376//376 628//628 117//117
f 125//125 224//224 376//376
f 117//117 628//628 154//154
f 654//654 344//344 412//412
f 630//630 160//160 490//490
f 490//490 154//154 628//628
f 155//155 208//208 634//634
f 630//630 634//634 499//499
f 155//155 634//634 344//344
f 634//634 630//630 344//344
f 208//208 365//365 634//634
f 365//365 156//156 634//634
f 499//499 634//634 396//396
f 365//365 461//461 156//156
f 156//156 461//461 635//635
f 353//353 156//156 352//352
f 301//301 218//218 637//637
f 461//461 637//637 635//635
f 448//448 392//392 637//637
f 43//43 609//609 157//157
f 160//160 154//154 490//490
f 341//341 535//535 274//274
f 535//535 159//159 330//330
f 689//689 517//517 157//157
f 689//689 157//157 274//274
f 274//274 161//161 57//57
f 721//721 200//200 722//722
f 200//200 721//721 723//723
f 162//162 164//164 163//163
f 163//163 164//164 165//165
f 200//200 724//724 722//722
f 162//162 178//178 164//164
f 163//163 165//165 644//644
f 644//644 165//165 166//166
f 164//164 667//667 167//167
f 58//58 370//370 484//484
f 326//326 168//168 198//198
f 326//326 58//58 168//168
f 58//58 285//285 370//370
f 525//525 453//453 277//277
f 545//545 198//198 169//169
f 277//277 329//329 646//646
f 484//484 168//168 58//58
f 451//451 306//306 199//199
f 484//484 656//656 578//578
f 457//457 478//478 347//347
f 370//370 347//347 656//656
f 648//648 603//603 543//543
f 656//656 496//496 578//578
f 427//427 456//456 572//572
f 492//492 391//391 686//686
f 453//453 171//171 647//647
f 650//650 277//277 651//651
f 632//632 351//351 170//170
f 170//170 351//351 172//172
f 452//452 652//652 172//172
f 197//197 174//174 653//653
f 290//290 172//172 351//351
f 450//450 653//653 174//174
f 723//723 163//163 725//725
f 179//179 353//353 352//352
f 161//161 658//658 656//656
f 177//177 392//392 448//448
f 177//177 447//447 260//260
f 352//352 176//176 179//179
f 176//176 182//182 179//179
f 179//179 180//180 178//178
f 178//178 180//180 186//186
f 166//166 599//599 387//387
f 204//204 727//727 726//726
f 447//447 627//627 260//260
f 728//728 183//183 729//729
f 730//730 183//183 728//728
f 610//610 240//240 310//310
f 610//610 611//611 240//240
f 180//180 610//610 310//310
f 181//181 240//240 184//184
f 204//204 726//726 731//731
f 204//204 731//731 732//732
f 732//732 611//611 733//733
f 644//644 166//166 387//387
f 166//166 657//657 599//599
f 181//181 599//599 355//355
f 657//657 355//355 599//599
f 355//355 657//657 185//185
f 178//178 186//186 164//164
f 164//164 186//186 667//667
f 667//667 186//186 657//657
f 667//667 657//657 166//166
f 181//181 355//355 240//240
f 186//186 180//180 187//187
f 180//180 310//310 187//187
f 310//310 355//355 187//187
f 186//186 187//187 185//185
f 186//186 185//185 657//657
f 292//292 328//328 188//188
f 313//313 182//182 625//625
f 260//260 193//193 625//625
f 202//202 529//529 86//86
f 322//322 293//293 356//356
f 343//343 421//421 202//202
f 343//343 313//313 550//550
f 272//272 550//550 190//190
f 631//631 293//293 272//272
f 356//356 324//324 322//322
f 625//625 229//229 313//313
f 182//182 313//313 179//179
f 734//734 191//191 735//735
f 191//191 734//734 736//736
f 737//737 201//201 738//738
f 191//191 736//736 739//739
f 203//203 741//741 740//740
f 599//599 727//727 740//740
f 671//671 709//709 742//742
f 616//616 188//188 192//192
f 671//671 742//742 743//743
f 393//393 633//633 212//212
f 188//188 738//738 743//743
f 737//737 328//328 724//724
f 260//260 627//627 90//90
f 542//542 560//560 440//440
f 440//440 560//560 361//361
f 323//323 265//265 576//576
f 419//419 440//440 643//643
f 212//212 633//633 101//101
f 194//194 633//633 205//205
f 611//611 729//729 733//733
f 197//197 523//523 170//170
f 170//170 198//198 199//199
f 168//168 199//199 198//198
f 170//170 199//199 197//197
f 197//197 199//199 174//174
f 163//163 744//744 725//725
f 745//745 644//644 746//746
f 200//200 175//175 253//253
f 200//200 253//253 331//331
f 714//714 98//98 747//747
f 202//202 747//747 739//739
f 100//100 671//671 191//191
f 200//200 331//331 201//201
f 671//671 201//201 191//191
f 201//201 203//203 191//191
f 201//201 331//331 203//203
f 191//191 203//203 206//206
f 183//183 204//204 196//196
f 206//206 203//203 204//204
f 183//183 206//206 204//204
f 631//631 190//190 205//205
f 90//90 207//207 193//193
f 419//419 438//438 395//395
f 638//638 513//513 437//437
f 400//400 193//193 207//207
f 313//313 229//229 550//550
f 193//193 400//400 229//229
f 400//400 550//550 229//229
f 363//363 194//194 195//195
f 101//101 194//194 363//363
f 195//195 194//194 190//190
f 195//195 190//190 550//550
f 262//262 303//303 2//2
f 263//263 674//674 255//255
f 3//3 674//674 368//368
f 16//16 220//220 9//9
f 220//220 13//13 674//674
f 10//10 360//360 551//551
f 111//111 268//268 360//360
f 360//360 268//268 573//573
f 399//399 294//294 383//383
f 297//297 573//573 268//268
f 267//267 573//573 225//225
f 378//378 255//255 14//14
f 675//675 14//14 114//114
f 17//17 264//264 13//13
f 676//676 489//489 270//270
f 16//16 676//676 116//116
f 318//318 309//309 434//434
f 18//18 434//434 309//309
f 19//19 270//270 593//593
f 593//593 615//615 19//19
f 224//224 434//434 45//45
f 581//581 20//20 563//563
f 20//20 592//592 568//568
f 21//21 22//22 20//20
f 20//20 546//546 21//21
f 682//682 592//592 678//678
f 591//591 128//128 498//498
f 24//24 585//585 23//23
f 24//24 23//23 679//679
f 26//26 27//27 28//28
f 679//679 8//8 24//24
f 239//239 690//690 246//246
f 31//31 28//28 514//514
f 394//394 294//294 372//372
f 372//372 294//294 319//319
f 551//551 227//227 26//26
f 399//399 319//319 294//294
f 681//681 383//383 394//394
f 664//664 335//335 682//682
f 34//34 249//249 314//314
f 682//682 565//565 664//664
f 372//372 595//595 32//32
f 333//333 595//595 430//430
f 296//296 325//325 269//269
f 642//642 569//569 548//548
f 569//569 559//559 325//325
f 569//569 642//642 559//559
f 325//325 559//559 269//269
f 296//296 663//663 248//248
f 296//296 269//269 663//663
f 663//663 222//222 256//256
f 9//9 500//500 489//489
f 214//214 533//533 500//500
f 259//259 371//371 36//36
f 259//259 282//282 371//371
f 259//259 397//397 282//282
f 371//371 44//44 214//214
f 489//489 683//683 270//270
f 488//488 44//44 371//371
f 397//397 41//41 282//282
f 514//514 684//684 239//239
f 684//684 514//514 37//37
f 493//493 238//238 684//684
f 666//666 493//493 135//135
f 38//38 558//558 37//37
f 39//39 558//558 38//38
f 493//493 684//684 147//147
f 533//533 562//562 683//683
f 282//282 42//42 488//488
f 231//231 237//237 412//412
f 47//47 547//547 575//575
f 258//258 654//654 47//47
f 237//237 381//381 46//46
f 46//46 47//47 237//237
f 327//327 48//48 46//46
f 547//547 49//49 358//358
f 46//46 381//381 327//327
f 49//49 48//48 589//589
f 398//398 589//589 48//48
f 50//50 301//301 358//358
f 533//533 44//44 380//380
f 42//42 282//282 689//689
f 517//517 689//689 43//43
f 359//359 54//54 94//94
f 40//40 522//522 562//562
f 593//593 270//270 562//562
f 388//388 251//251 380//380
f 689//689 537//537 42//42
f 537//537 410//410 251//251
f 237//237 231//231 617//617
f 237//237 617//617 381//381
f 660//660 326//326 460//460
f 277//277 502//502 329//329
f 273//273 692//692 242//242
f 693//693 433//433 321//321
f 486//486 515//515 425//425
f 694//694 457//457 285//285
f 694//694 367//367 478//478
f 491//491 543//543 78//78
f 694//694 60//60 245//245
f 694//694 695//695 60//60
f 433//433 426//426 509//509
f 528//528 487//487 648//648
f 648//648 487//487 348//348
f 242//242 620//620 695//695
f 650//650 553//553 277//277
f 425//425 459//459 486//486
f 321//321 433//433 570//570
f 242//242 692//692 620//620
f 692//692 93//93 620//620
f 695//695 620//620 60//60
f 290//290 483//483 482//482
f 583//583 620//620 211//211
f 64//64 52//52 53//53
f 481//481 64//64 374//374
f 72//72 518//518 589//589
f 398//398 516//516 589//589
f 72//72 59//59 518//518
f 518//518 300//300 589//589
f 64//64 70//70 298//298
f 217//217 77//77 366//366
f 708//708 97//97 748//748
f 327//327 381//381 555//555
f 555//555 381//381 299//299
f 589//589 516//516 72//72
f 567//567 56//56 57//57
f 96//96 696//696 749//749
f 304//304 72//72 516//516
f 720//720 283//283 716//716
f 410//410 567//567 367//367
f 77//77 748//748 711//711
f 367//367 245//245 544//544
f 544//544 245//245 362//362
f 639//639 79//79 362//362
f 85//85 79//79 673//673
f 673//673 349//349 85//85
f 103//103 579//579 375//375
f 233//233 105//105 221//221
f 608//608 243//243 80//80
f 604//604 476//476 332//332
f 375//375 236//236 83//83
f 82//82 302//302 279//279
f 279//279 302//302 83//83
f 216//216 302//302 409//409
f 216//216 83//83 302//302
f 409//409 302//302 84//84
f 235//235 279//279 236//236
f 235//235 82//82 279//279
f 236//236 279//279 83//83
f 92//92 375//375 83//83
f 88//88 407//407 520//520
f 86//86 409//409 235//235
f 219//219 215//215 86//86
f 80//80 604//604 561//561
f 655//655 685//685 88//88
f 304//304 713//713 750//750
f 304//304 750//750 749//749
f 85//85 349//349 192//192
f 349//349 63//63 192//192
f 83//83 216//216 213//213
f 87//87 261//261 257//257
f 257//257 261//261 315//315
f 215//215 315//315 213//213
f 215//215 307//307 257//257
f 257//257 307//307 87//87
f 390//390 307//307 234//234
f 234//234 215//215 219//219
f 357//357 390//390 219//219
f 579//579 103//103 233//233
f 80//80 561//561 505//505
f 90//90 89//89 588//588
f 92//92 83//83 213//213
f 655//655 337//337 685//685
f 510//510 404//404 230//230
f 226//226 91//91 475//475
f 475//475 419//419 104//104
f 460//460 433//433 284//284
f 564//564 106//106 554//554
f 554//554 106//106 363//363
f 475//475 104//104 226//226
f 107//107 1//1 2//2
f 2//2 108//108 107//107
f 108//108 521//521 225//225
f 577//577 504//504 108//108
f 109//109 107//107 110//110
f 107//107 108//108 504//504
f 12//12 675//675 512//512
f 111//111 512//512 247//247
f 297//297 268//268 336//336
f 336//336 268//268 668//668
f 577//577 108//108 225//225
f 113//113 577//577 297//297
f 316//316 336//336 668//668
f 115//115 114//114 275//275
f 275//275 114//114 501//501
f 15//15 116//116 317//317
f 471//471 318//318 125//125
f 471//471 133//133 119//119
f 125//125 434//434 224//224
f 471//471 125//125 376//376
f 471//471 276//276 133//133
f 119//119 501//501 116//116
f 549//549 112//112 115//115
f 338//338 122//122 275//275
f 508//508 228//228 540//540
f 127//127 600//600 228//228
f 587//587 435//435 241//241
f 417//417 508//508 642//642
f 127//127 601//601 600//600
f 278//278 320//320 498//498
f 129//129 497//497 109//109
f 110//110 504//504 210//210
f 642//642 597//597 538//538
f 587//587 467//467 435//435
f 414//414 467//467 602//602
f 587//587 602//602 467//467
f 540//540 582//582 466//466
f 602//602 519//519 582//582
f 210//210 504//504 472//472
f 472//472 369//369 210//210
f 278//278 130//130 430//430
f 35//35 209//209 148//148
f 148//148 209//209 464//464
f 223//223 582//582 281//281
f 559//559 281//281 269//269
f 495//495 269//269 281//281
f 495//495 519//519 269//269
f 495//495 281//281 582//582
f 222//222 269//269 465//465
f 465//465 269//269 519//519
f 132//132 316//316 464//464
f 511//511 132//132 472//472
f 472//472 132//132 369//369
f 132//132 130//130 369//369
f 119//119 133//133 672//672
f 339//339 397//397 259//259
f 672//672 149//149 339//339
f 672//672 339//339 135//135
f 276//276 150//150 133//133
f 134//134 149//149 157//157
f 341//341 157//157 149//149
f 136//136 340//340 493//493
f 140//140 141//141 146//146
f 142//142 271//271 123//123
f 506//506 39//39 574//574
f 136//136 493//493 147//147
f 506//506 147//147 558//558
f 159//159 149//149 607//607
f 41//41 397//397 596//596
f 154//154 158//158 150//150
f 609//609 677//677 244//244
f 607//607 330//330 159//159
f 134//134 157//157 609//609
f 151//151 614//614 152//152
f 354//354 614//614 124//124
f 354//354 377//377 614//614
f 628//628 376//376 224//224
f 224//224 412//412 628//628
f 630//630 490//490 344//344
f 155//155 258//258 208//208
f 396//396 634//634 156//156
f 637//637 461//461 301//301
f 218//218 448//448 637//637
f 159//159 341//341 149//149
f 157//157 517//517 43//43
f 160//160 330//330 158//158
f 341//341 274//274 157//157
f 165//165 164//164 167//167
f 165//165 167//167 166//166
f 667//667 166//166 167//167
f 525//525 646//646 526//526
f 525//525 250//250 536//536
f 329//329 326//326 536//536
f 198//198 545//545 326//326
f 169//169 411//411 458//458
f 652//652 411//411 198//198
f 198//198 170//170 652//652
f 525//525 526//526 250//250
f 169//169 458//458 524//524
f 169//169 524//524 670//670
f 652//652 524//524 458//458
f 170//170 571//571 334//334
f 168//168 484//484 451//451
f 168//168 451//451 199//199
f 656//656 484//484 370//370
f 603//603 507//507 556//556
f 543//543 556//556 78//78
f 346//346 572//572 456//456
f 385//385 541//541 686//686
f 172//172 290//290 492//492
f 578//578 455//455 173//173
f 578//578 496//496 455//455
f 496//496 305//305 455//455
f 305//305 312//312 174//174
f 453//453 385//385 171//171
f 453//453 651//651 277//277
f 172//172 541//541 479//479
f 484//484 578//578 173//173
f 451//451 173//173 306//306
f 305//305 174//174 306//306
f 253//253 744//744 745//745
f 449//449 499//499 396//396
f 57//57 161//161 687//687
f 392//392 352//352 635//635
f 260//260 176//176 177//177
f 177//177 598//598 447//447
f 179//179 308//308 353//353
f 178//178 308//308 179//179
f 353//353 308//308 449//449
f 308//308 328//328 449//449
f 161//161 656//656 687//687
f 567//567 347//347 478//478
f 347//347 687//687 656//656
f 328//328 658//658 449//449
f 447//447 598//598 627//627
f 240//240 611//611 184//184
f 185//185 187//187 355//355
f 556//556 507//507 391//391
f 658//658 386//386 656//656
f 658//658 328//328 386//386
f 328//328 311//311 386//386
f 188//188 450//450 312//312
f 450//450 174//174 312//312
f 328//328 292//292 311//311
f 311//311 292//292 496//496
f 292//292 188//188 305//305
f 622//622 444//444 189//189
f 622//622 189//189 443//443
f 443//443 323//323 659//659
f 661//661 473//473 623//623
f 393//393 86//86 529//529
f 691//691 406//406 444//444
f 691//691 623//623 473//473
f 685//685 408//408 407//407
f 272//272 343//343 550//550
f 293//293 322//322 272//272
f 272//272 322//322 324//324
f 324//324 356//356 295//295
f 295//295 356//356 293//293
f 529//529 324//324 295//295
f 529//529 202//202 324//324
f 191//191 751//751 735//735
f 616//616 63//63 450//450
f 188//188 616//616 450//450
f 212//212 315//315 393//393
f 390//390 357//357 261//261
f 261//261 357//357 393//393
f 219//219 393//393 357//357
f 272//272 190//190 631//631
f 752//752 387//387 741//741
f 193//193 260//260 90//90
f 323//323 560//560 442//442
f 405//405 473//473 404//404
f 265//265 626//626 189//189
f 189//189 405//405 265//265
f 323//323 665//665 560//560
f 337//337 473//473 685//685
f 655//655 404//404 337//337
f 403//403 439//439 638//638
f 404//404 636//636 402//402
f 402//402 636//636 195//195
f 363//363 401//401 418//418
f 633//633 194//194 101//101
f 588//588 207//207 90//90
f 437//437 400//400 395//395
f 401//401 363//363 195//195
f 550//550 400//400 195//195
f 2//2 303//303 521//521
f 585//585 24//24 3//3
f 13//13 220//220 16//16
f 350//350 378//378 5//5
f 14//14 264//264 317//317
f 16//16 489//489 676//676
f 676//676 18//18 309//309
f 434//434 18//18 45//45
f 45//45 18//18 615//615
f 303//303 563//563 289//289
f 20//20 568//568 546//546
f 431//431 21//21 546//546
f 335//335 592//592 682//682
f 417//417 586//586 678//678
f 289//289 591//591 319//319
f 591//591 629//629 319//319
f 591//591 498//498 629//629
f 629//629 498//498 320//320
f 8//8 432//432 9//9
f 30//30 432//432 690//690
f 690//690 624//624 30//30
f 239//239 624//624 690//690
f 32//32 227//227 394//394
f 267//267 383//383 681//681
f 249//249 431//431 314//314
f 249//249 436//436 431//431
f 252//252 664//664 33//33
f 33//33 664//664 548//548
f 642//642 548//548 565//565
f 565//565 548//548 664//664
f 436//436 249//249 34//34
f 256//256 436//436 34//34
f 595//595 372//372 629//629
f 296//296 248//248 552//552
f 248//248 663//663 256//256
f 238//238 493//493 666//666
f 366//366 50//50 688//688
f 94//94 54//54 59//59
f 562//562 522//522 231//231
f 380//380 251//251 522//522
f 522//522 617//617 231//231
f 537//537 251//251 388//388
f 522//522 381//381 617//617
f 410//410 537//537 56//56
f 660//660 285//285 58//58
f 502//502 553//553 566//566
f 632//632 693//693 321//321
f 694//694 342//342 695//695
f 694//694 285//285 342//342
f 648//648 530//530 528//528
f 427//427 487//487 425//425
f 425//425 426//426 640//640
f 427//427 515//515 456//456
f 528//528 477//477 426//426
f 515//515 650//650 456//456
f 570//570 483//483 62//62
f 620//620 93//93 211//211
f 485//485 619//619 433//433
f 570//570 482//482 483//483
f 620//620 673//673 60//60
f 518//518 59//59 217//217
f 384//384 381//381 516//516
f 480//480 73//73 598//598
f 528//528 491//491 477//477
f 639//639 60//60 79//79
f 509//509 78//78 445//445
f 80//80 243//243 604//604
f 474//474 375//375 92//92
f 389//389 409//409 86//86
f 315//315 215//215 257//257
f 315//315 212//212 213//213
f 105//105 233//233 103//103
f 80//80 446//446 423//423
f 446//446 232//232 88//88
f 80//80 232//232 446//446
f 88//88 232//232 364//364
f 88//88 230//230 655//655
f 364//364 373//373 88//88
f 91//91 505//505 594//594
f 440//440 594//594 542//542
f 88//88 422//422 230//230
f 91//91 594//594 475//475
f 420//420 503//503 226//226
f 418//418 554//554 363//363
f 419//419 395//395 104//104
f 336//336 316//316 511//511
f 14//14 317//317 501//501
f 117//117 276//276 471//471
f 119//119 123//123 463//463
f 120//120 668//668 122//122
f 540//540 228//228 600//600
f 127//127 241//241 435//435
f 416//416 508//508 540//540
f 416//416 597//597 642//642
f 597//597 416//416 540//540
f 540//540 600//600 601//601
f 540//540 601//601 527//527
f 127//127 527//527 601//601
f 587//587 470//470 431//431
f 431//431 468//468 587//587
f 127//127 228//228 497//497
f 645//645 498//498 128//128
f 280//280 469//469 415//415
f 415//415 469//469 129//129
f 414//414 527//527 467//467
f 540//540 466//466 538//538
f 540//540 414//414 582//582
f 35//35 333//333 131//131
f 130//130 278//278 280//280
f 209//209 131//131 464//464
f 587//587 519//519 602//602
f 511//511 316//316 132//132
f 133//133 254//254 672//672
f 134//134 397//397 339//339
f 463//463 271//271 354//354
f 287//287 288//288 413//413
f 134//134 596//596 397//397
f 609//609 584//584 596//596
f 41//41 596//596 584//584
f 609//609 244//244 584//584
f 43//43 677//677 612//612
f 609//609 291//291 612//612
f 43//43 462//462 613//613
f 609//609 462//462 291//291
f 613//613 345//345 43//43
f 429//429 461//461 365//365
f 637//637 392//392 635//635
f 609//609 43//43 345//345
f 330//330 160//160 535//535
f 159//159 535//535 341//341
f 689//689 274//274 537//537
f 535//535 499//499 449//449
f 525//525 277//277 646//646
f 536//536 545//545 525//525
f 329//329 669//669 646//646
f 646//646 669//669 526//526
f 525//525 545//545 169//169
f 647//647 171//171 456//456
f 457//457 347//347 370//370
f 171//171 686//686 649//649
f 649//649 686//686 348//348
f 171//171 649//649 572//572
f 172//172 492//492 541//541
f 686//686 391//391 507//507
f 290//290 445//445 492//492
f 453//453 647//647 454//454
f 169//169 385//385 453//453
f 385//385 169//169 479//479
f 479//479 169//169 452//452
f 172//172 479//479 452//452
f 456//456 650//650 647//647
f 351//351 632//632 62//62
f 652//652 452//452 670//670
f 535//535 449//449 161//161
f 176//176 352//352 177//177
f 687//687 347//347 57//57
f 182//182 260//260 625//625
f 78//78 556//556 621//621
f 492//492 621//621 391//391
f 623//623 81//81 661//661
f 81//81 623//623 622//622
f 476//476 81//81 622//622
f 691//691 444//444 623//623
f 407//407 408//408 473//473
f 473//473 408//408 685//685
f 662//662 421//421 272//272
f 293//293 529//529 295//295
f 89//89 90//90 627//627
f 560//560 332//332 641//641
f 405//405 691//691 473//473
f 337//337 404//404 473//473
f 323//323 576//576 665//665
f 665//665 576//576 361//361
f 439//439 403//403 265//265
f 405//405 402//402 439//439
f 265//265 403//403 576//576
f 576//576 403//403 441//441
f 440//440 441//441 643//643
f 403//403 643//643 441//441
f 419//419 643//643 438//438
f 437//437 403//403 638//638
f 513//513 638//638 402//402
f 403//403 437//437 438//438
f 437//437 513//513 400//400
f 104//104 395//395 400//400
f 104//104 400//400 207//207
f 399//399 303//303 289//289
f 303//303 399//399 521//521
f 225//225 521//521 267//267
f 10//10 263//263 350//350
f 675//675 580//580 378//378
f 360//360 681//681 551//551
f 399//399 383//383 267//267
f 317//317 264//264 15//15
f 309//309 318//318 676//676
f 676//676 19//19 18//18
f 615//615 18//18 19//19
f 678//678 581//581 417//417
f 314//314 568//568 592//592
f 682//682 678//678 586//586
f 22//22 128//128 591//591
f 319//319 629//629 372//372
f 595//595 320//320 430//430
f 320//320 595//595 629//629
f 680//680 31//31 246//246
f 432//432 30//30 9//9
f 9//9 30//30 214//214
f 618//618 37//37 514//514
f 681//681 394//394 551//551
f 227//227 551//551 394//394
f 394//394 383//383 294//294
f 682//682 586//586 565//565
f 565//565 586//586 642//642
f 568//568 314//314 431//431
f 252//252 314//314 664//664
f 248//248 252//252 33//33
f 34//34 314//314 252//252
f 227//227 333//333 35//35
f 33//33 552//552 248//248
f 325//325 296//296 552//552
f 548//548 569//569 33//33
f 252//252 248//248 34//34
f 256//256 34//34 248//248
f 256//256 222//222 436//436
f 488//488 371//371 282//282
f 488//488 388//388 44//44
f 36//36 239//239 238//238
f 36//36 238//238 666//666
f 412//412 237//237 654//654
f 300//300 688//688 49//49
f 448//448 218//218 50//50
f 606//606 52//52 51//51
f 51//51 54//54 606//606
f 44//44 388//388 380//380
f 282//282 41//41 689//689
f 689//689 41//41 43//43
f 593//593 562//562 231//231
f 537//537 57//57 56//56
f 284//284 286//286 660//660
f 660//660 273//273 342//342
f 273//273 242//242 342//342
f 93//93 286//286 284//284
f 286//286 93//93 692//692
f 566//566 460//460 502//502
f 502//502 460//460 329//329
f 460//460 428//428 433//433
f 460//460 326//326 329//329
f 433//433 428//428 424//424
f 428//428 460//460 566//566
f 425//425 515//515 427//427
f 457//457 694//694 478//478
f 543//543 491//491 530//530
f 648//648 543//543 530//530
f 245//245 60//60 639//639
f 425//425 640//640 619//619
f 619//619 640//640 433//433
f 509//509 426//426 477//477
f 427//427 348//348 487//487
f 433//433 640//640 426//426
f 290//290 482//482 445//445
f 445//445 482//482 509//509
f 342//342 242//242 695//695
f 566//566 553//553 486//486
f 486//486 553//553 650//650
f 566//566 486//486 428//428
f 428//428 486//486 424//424
f 486//486 459//459 424//424
f 433//433 424//424 459//459
f 277//277 553//553 502//502
f 425//425 485//485 459//459
f 425//425 619//619 485//485
f 650//650 515//515 486//486
f 433//433 459//459 485//485
f 570//570 433//433 509//509
f 483//483 351//351 62//62
f 62//62 632//632 321//321
f 570//570 62//62 321//321
f 555//555 299//299 384//384
f 384//384 299//299 381//381
f 555//555 384//384 398//398
f 398//398 327//327 555//555
f 251//251 516//516 381//381
f 516//516 251//251 410//410
f 480//480 366//366 73//73
f 480//480 598//598 448//448
f 598//598 73//73 221//221
f 366//366 579//579 73//73
f 544//544 410//410 367//367
f 245//245 639//639 362//362
f 491//491 509//509 477//477
f 491//491 78//78 509//509
f 673//673 79//79 60//60
f 608//608 520//520 243//243
f 476//476 604//604 243//243
f 81//81 476//476 520//520
f 520//520 476//476 243//243
f 520//520 407//407 81//81
f 407//407 661//661 81//81
f 235//235 409//409 84//84
f 389//389 86//86 215//215
f 215//215 216//216 389//389
f 608//608 423//423 520//520
f 423//423 608//608 80//80
f 561//561 604//604 332//332
f 407//407 88//88 685//685
f 63//63 349//349 583//583
f 63//63 616//616 192//192
f 673//673 583//583 349//349
f 215//215 234//234 307//307
f 390//390 234//234 219//219
f 216//216 215//215 213//213
f 446//446 88//88 423//423
f 423//423 88//88 520//520
f 505//505 561//561 332//332
f 332//332 542//542 505//505
f 542//542 594//594 505//505
f 221//221 588//588 89//89
f 80//80 364//364 232//232
f 80//80 91//91 364//364
f 364//364 91//91 373//373
f 404//404 655//655 230//230
f 373//373 422//422 88//88
f 91//91 503//503 422//422
f 440//440 419//419 475//475
f 230//230 418//418 510//510
f 418//418 230//230 554//554
f 230//230 422//422 554//554
f 503//503 420//420 422//422
f 100//100 96//96 99//99
f 226//226 564//564 420//420
f 1//1 107//107 109//109
f 336//336 113//113 297//297
f 297//297 577//577 225//225
f 113//113 472//472 577//577
f 577//577 472//472 504//504
f 336//336 511//511 113//113
f 114//114 512//512 675//675
f 116//116 501//501 317//317
f 376//376 117//117 471//471
f 119//119 118//118 501//501
f 119//119 463//463 118//118
f 150//150 276//276 154//154
f 508//508 417//417 228//228
f 470//470 241//241 431//431
f 642//642 508//508 416//416
f 527//527 435//435 467//467
f 534//534 129//129 469//469
f 498//498 645//645 278//278
f 280//280 278//278 645//645
f 469//469 280//280 645//645
f 109//109 110//110 129//129
f 415//415 129//129 210//210
f 538//538 597//597 540//540
f 540//540 527//527 414//414
f 538//538 466//466 642//642
f 582//582 223//223 466//466
f 466//466 223//223 642//642
f 602//602 582//582 414//414
f 431//431 436//436 468//468
f 468//468 436//436 494//494
f 587//587 468//468 519//519
f 519//519 468//468 494//494
f 369//369 415//415 210//210
f 131//131 209//209 35//35
f 281//281 559//559 223//223
f 519//519 494//494 465//465
f 465//465 494//494 436//436
f 465//465 436//436 222//222
f 316//316 153//153 464//464
f 131//131 132//132 464//464
f 149//149 134//134 339//339
f 143//143 539//539 340//340
f 493//493 340//340 135//135
f 135//135 340//340 539//539
f 119//119 142//142 123//123
f 142//142 539//539 271//271
f 271//271 539//539 143//143
f 136//136 147//147 605//605
f 612//612 677//677 609//609
f 244//244 677//677 41//41
f 612//612 291//291 43//43
f 291//291 462//462 43//43
f 150//150 158//158 254//254
f 254//254 158//158 330//330
f 330//330 607//607 254//254
f 613//613 462//462 609//609
f 345//345 613//613 609//609
f 412//412 490//490 628//628
f 155//155 344//344 258//258
f 344//344 654//654 258//258
f 412//412 344//344 490//490
f 635//635 352//352 156//156
f 160//160 158//158 154//154
f 630//630 499//499 160//160
f 160//160 499//499 535//535
f 57//57 537//537 274//274
f 669//669 250//250 526//526
f 250//250 669//669 536//536
f 536//536 669//669 329//329
f 326//326 545//545 536//536
f 169//169 198//198 411//411
f 458//458 411//411 652//652
f 670//670 524//524 652//652
f 172//172 652//652 170//170
f 170//170 334//334 632//632
f 285//285 457//457 370//370
f 346//346 456//456 171//171
f 603//603 556//556 543//543
f 648//648 507//507 603//603
f 648//648 686//686 507//507
f 649//649 348//348 427//427
f 427//427 572//572 649//649
f 171//171 572//572 346//346
f 385//385 686//686 171//171
f 686//686 541//541 492//492
f 348//348 686//686 648//648
f 455//455 306//306 173//173
f 455//455 305//305 306//306
f 650//650 454//454 647//647
f 651//651 454//454 650//650
f 454//454 651//651 453//453
f 453//453 525//525 169//169
f 169//169 670//670 452//452
f 479//479 541//541 385//385
f 484//484 173//173 451//451
f 174//174 199//199 306//306
f 483//483 290//290 351//351
f 63//63 653//653 450//450
f 353//353 396//396 156//156
f 535//535 161//161 274//274
f 353//353 449//449 396//396
f 161//161 449//449 658//658
f 448//448 598//598 177//177
f 177//177 352//352 392//392
f 176//176 260//260 182//182
f 308//308 178//178 328//328
f 57//57 347//347 567//567
f 627//627 598//598 89//89
f 355//355 310//310 240//240
f 556//556 391//391 621//621
f 496//496 656//656 386//386
f 311//311 496//496 386//386
f 621//621 445//445 78//78
f 621//621 492//492 445//445
f 292//292 305//305 496//496
f 312//312 305//305 188//188
f 623//623 444//444 622//622
f 443//443 476//476 622//622
f 332//332 476//476 659//659
f 659//659 476//476 443//443
f 443//443 189//189 323//323
f 473//473 661//661 407//407
f 393//393 529//529 293//293
f 332//332 659//659 442//442
f 442//442 659//659 323//323
f 189//189 626//626 323//323
f 444//444 406//406 189//189
f 272//272 421//421 343//343
f 662//662 202//202 421//421
f 272//272 324//324 662//662
f 662//662 324//324 202//202
f 631//631 393//393 293//293
f 180//180 751//751 753//753
f 180//180 753//753 730//730
f 393//393 315//315 261//261
f 631//631 633//633 393//393
f 442//442 641//641 332//332
f 560//560 641//641 442//442
f 189//189 406//406 691//691
f 691//691 405//405 189//189
f 626//626 265//265 323//323
f 665//665 361//361 560//560
f 229//229 625//625 193//193
f 405//405 439//439 265//265
f 440//440 361//361 441//441
f 441//441 361//361 576//576
f 402//402 405//405 404//404
f 510//510 636//636 404//404
f 205//205 633//633 631//631
f 638//638 439//439 402//402
f 438//438 643//643 403//403
f 510//510 418//418 636//636
f 195//195 636//636 401//401
f 636//636 418//418 401//401
f 170//170 523//523 571//571
f 693//693 334//334 523//523
f 523//523 334//334 571//571
f 331//331 746//746 752//752
f 438//438 437//437 395//395
f 402//402 195//195 513//513
f 513//513 195//195 400//400
f 205//205 190//190 194//194
f 59//59 72//72 697//697
f 696//696 697//697 72//72
f 359//359 699//699 70//70
f 699//699 359//359 698//698
f 94//94 701//701 359//359
f 701//701 94//94 700//700
f 701//701 55//55 698//698
f 55//55 701//701 61//61
f 298//298 70//70 703//703
f 702//702 703//703 70//70
f 703//703 557//557 704//704
f 557//557 703//703 71//71
f 75//75 74//74 706//706
f 705//705 706//706 74//74
f 65//65 705//705 74//74
f 705//705 65//65 707//707
f 706//706 97//97 708//708
f 97//97 706//706 76//76
f 79//79 85//85 710//710
f 709//709 710//710 85//85
f 77//77 711//711 235//235
f 712//712 235//235 711//711
f 304//304 79//79 713//713
f 710//710 713//713 79//79
f 714//714 235//235 712//712
f 235//235 714//714 86//86
f 715//715 102//102 707//707
f 76//76 707//707 102//102
f 716//716 102//102 715//715
f 102//102 716//716 283//283
f 717//717 61//61 700//700
f 61//61 717//717 95//95
f 94//94 718//718 717//717
f 718//718 94//94 59//59
f 697//697 95//95 718//718
f 95//95 697//697 96//96
f 55//55 71//71 699//699
f 702//702 699//699 71//71
f 704//704 557//557 719//719
f 283//283 719//719 557//557
f 298//298 719//719 590//590
f 720//720 590//590 719//719
f 162//162 722//722 178//178
f 722//722 162//162 721//721
f 162//162 163//163 721//721
f 723//723 721//721 163//163
f 724//724 328//328 722//722
f 178//178 722//722 328//328
f 200//200 723//723 175//175
f 725//725 175//175 723//723
f 599//599 181//181 727//727
f 726//726 727//727 181//181
f 610//610 728//728 611//611
f 729//729 611//611 728//728
f 180//180 730//730 610//610
f 728//728 610//610 730//730
f 181//181 731//731 726//726
f 731//731 181//181 184//184
f 731//731 611//611 732//732
f 611//611 731//731 184//184
f 204//204 732//732 196//196
f 733//733 196//196 732//732
f 313//313 735//735 179//179
f 735//735 313//313 734//734
f 313//313 343//343 734//734
f 736//736 734//734 343//343
f 328//328 737//737 188//188
f 738//738 188//188 737//737
f 343//343 202//202 736//736
f 739//739 736//736 202//202
f 387//387 599//599 741//741
f 740//740 741//741 599//599
f 727//727 203//203 740//740
f 203//203 727//727 204//204
f 709//709 192//192 742//742
f 192//192 709//709 85//85
f 192//192 743//743 742//742
f 743//743 192//192 188//188
f 738//738 671//671 743//743
f 671//671 738//738 201//201
f 201//201 724//724 200//200
f 724//724 201//201 737//737
f 729//729 196//196 733//733
f 196//196 729//729 183//183
f 744//744 175//175 725//725
f 175//175 744//744 253//253
f 253//253 746//746 331//331
f 746//746 253//253 745//745
f 86//86 747//747 202//202
f 747//747 86//86 714//714
f 98//98 191//191 747//747
f 739//739 747//747 191//191
f 75//75 708//708 77//77
f 748//748 77//77 708//708
f 696//696 304//304 749//749
f 304//304 696//696 72//72
f 590//590 716//716 65//65
f 716//716 590//590 720//720
f 748//748 98//98 711//711
f 98//98 748//748 97//97
f 671//671 99//99 713//713
f 750//750 713//713 99//99
f 750//750 99//99 749//749
f 96//96 749//749 99//99
f 163//163 644//644 744//744
f 745//745 744//744 644//644
f 751//751 179//179 735//735
f 179//179 751//751 180//180
f 331//331 741//741 203//203
f 741//741 331//331 752//752
f 191//191 206//206 751//751
f 753//753 751//751 206//206
f 753//753 206//206 730//730
f 183//183 730//730 206//206
f 644//644 387//387 746//746
f 752//752 746//746 387//387
# 1495 faces, 0 coords texture

# End of File
